<?xml version="1.0" encoding="UTF-8"?> <svg xmlns="http://www.w3.org/2000/svg" viewBox="0 0 664.08 185.28"><defs><style>.cls-1{fill:#4bb9b4;}.cls-2{fill:#e86c47;}</style></defs><title>GuidedBy_logo</title><g id="Layer_2" data-name="Layer 2"><g id="Layer_1-2" data-name="Layer 1"><path class="cls-1" d="M228.49,5.57a13.7,13.7,0,0,0-10.06,4.17,13.7,13.7,0,0,0-4.17,10.06,13.7,13.7,0,0,0,4.17,10.05,14.2,14.2,0,0,0,20.12,0,13.69,13.69,0,0,0,4.16-10,13.69,13.69,0,0,0-4.16-10.06A13.74,13.74,0,0,0,228.49,5.57Z"></path><path class="cls-1" d="M183.84,83.08a55.24,55.24,0,0,1-.49,7.52,18.7,18.7,0,0,1-2,6.46,11.69,11.69,0,0,1-4.49,4.58,15.2,15.2,0,0,1-7.69,1.72q-4.74,0-7.28-2a11.69,11.69,0,0,1-3.76-5.07,22.23,22.23,0,0,1-1.47-6.78q-.24-3.69-.24-7.12V43.5H131.83V87.33a96,96,0,0,0,1.07,14.88,30.89,30.89,0,0,0,4.25,11.94,21.61,21.61,0,0,0,9,7.93q5.81,2.86,15.13,2.86a28.13,28.13,0,0,0,8.18-1.14,28.89,28.89,0,0,0,6.7-3,21.69,21.69,0,0,0,5-4.08,27.17,27.17,0,0,0,3.35-4.58h.33V123h23.55V43.5H183.84Z"></path><rect class="cls-1" x="216.22" y="43.5" width="24.53" height="79.48"></rect><path class="cls-1" d="M307.48,7V52h-.33a22.91,22.91,0,0,0-10.87-8.09A42.21,42.21,0,0,0,282,41.54a32.3,32.3,0,0,0-15.21,3.51,35.22,35.22,0,0,0-11.37,9.4,43.93,43.93,0,0,0-7.2,13.5,50.05,50.05,0,0,0-2.53,15.94,47.14,47.14,0,0,0,2.78,16.52,37.86,37.86,0,0,0,7.93,13,35.63,35.63,0,0,0,12.35,8.51,41.11,41.11,0,0,0,16,3,27.8,27.8,0,0,0,7.93-1.14,34,34,0,0,0,7-3,28.59,28.59,0,0,0,5.56-4,26.89,26.89,0,0,0,3.84-4.34h.33V123H332V7Zm-3.19,90.81q-5.16,5.56-14.47,5.57t-14.48-5.57q-5.14-5.55-5.15-14.55t5.15-14.56q5.16-5.55,14.48-5.56t14.47,5.56q5.15,5.56,5.15,14.56T304.29,97.79Z"></path><path class="cls-1" d="M407.49,52.9a32.25,32.25,0,0,0-11.78-8.42,39.29,39.29,0,0,0-15.45-2.94A50.18,50.18,0,0,0,363,44.48a41.38,41.38,0,0,0-14.06,8.42,39.58,39.58,0,0,0-9.41,13.17,41.62,41.62,0,0,0-3.43,17.17,41.62,41.62,0,0,0,3.43,17.17,39.48,39.48,0,0,0,9.41,13.17A41.38,41.38,0,0,0,363,122a50.18,50.18,0,0,0,17.26,2.94,44.52,44.52,0,0,0,18.64-4.09,39,39,0,0,0,14.88-11.61L396.61,96.65a27.4,27.4,0,0,1-7.28,6.95,18.42,18.42,0,0,1-10.22,2.7,18,18,0,0,1-12.1-4.17,19.4,19.4,0,0,1-6.38-11.2h56.91V83.24a53.17,53.17,0,0,0-2.61-17.17A38.59,38.59,0,0,0,407.49,52.9ZM360.63,74.24A15.59,15.59,0,0,1,362,68.6a14.69,14.69,0,0,1,3.43-4.74A17.92,17.92,0,0,1,378,59.2a14.53,14.53,0,0,1,10.95,4.41A14.19,14.19,0,0,1,393,74.24Z"></path><path class="cls-1" d="M484.1,7V52h-.32a22.94,22.94,0,0,0-10.88-8.09,42.17,42.17,0,0,0-14.31-2.37,32.3,32.3,0,0,0-15.21,3.51A35.32,35.32,0,0,0,432,54.45,44.12,44.12,0,0,0,424.82,68a50.06,50.06,0,0,0-2.54,15.94,47.14,47.14,0,0,0,2.79,16.52,37.7,37.7,0,0,0,7.93,13,35.69,35.69,0,0,0,12.34,8.51,41.11,41.11,0,0,0,16,3,27.7,27.7,0,0,0,7.93-1.14,34,34,0,0,0,7-3,28.89,28.89,0,0,0,5.56-4,26.89,26.89,0,0,0,3.84-4.34h.33V123h22.57V7Zm-3.18,90.81q-5.16,5.56-14.48,5.57T452,97.79q-5.16-5.55-5.15-14.55T452,68.68q5.14-5.55,14.47-5.56t14.48,5.56q5.15,5.56,5.15,14.56T480.92,97.79Z"></path><path class="cls-1" d="M62.27,150.28l-8.68-8.64C53.32,141.38,27,115.12,18,106A62.26,62.26,0,1,1,124.52,62.26a61.87,61.87,0,0,1-18.08,43.87c-9,9-35.24,35.24-35.5,35.5Zm0-125.71A37.69,37.69,0,0,0,35.45,88.75C41.1,94.46,53.7,107,62.25,115.58,70.8,107.05,83.36,94.5,89,88.82A37.69,37.69,0,0,0,62.26,24.57Z"></path><path class="cls-1" d="M91.3,132.08A29,29,0,0,1,35,141.54l-18.31,18.3a53.61,53.61,0,0,0,95.27-48.39Z"></path><path class="cls-2" d="M585.25,70.73a26.06,26.06,0,0,0-8.18-5.89,30.94,30.94,0,0,0-10.47-2.7v-.33q10.3-2.12,15.54-8.66a23.88,23.88,0,0,0,5.23-15.38Q587.37,28,584,22a25.5,25.5,0,0,0-8.67-9.32,31.6,31.6,0,0,0-12-4.42,85.57,85.57,0,0,0-13.24-1.06H516.72V123h37a66.61,66.61,0,0,0,12.68-1.31,36.93,36.93,0,0,0,12.59-4.9,29.43,29.43,0,0,0,9.65-9.9q3.84-6.28,3.84-16.27a31.62,31.62,0,0,0-1.88-11.12A25.71,25.71,0,0,0,585.25,70.73ZM527.52,17h23.87A46.23,46.23,0,0,1,561,18a22.26,22.26,0,0,1,8,3.36,17,17,0,0,1,5.48,6.37,23.14,23.14,0,0,1,1.06,16.2,14.83,14.83,0,0,1-3.93,6.29,23.38,23.38,0,0,1-8.17,5q-5.25,2.06-13.58,2.05h-22.4Zm53.07,80.88a18,18,0,0,1-4.17,7.27,23.48,23.48,0,0,1-8.92,5.73q-5.81,2.3-15.29,2.29H527.52V67.05h26.33a39.11,39.11,0,0,1,10,1.31,26.23,26.23,0,0,1,8.92,4.17A21.82,21.82,0,0,1,579.2,80a23,23,0,0,1,2.45,11A26.67,26.67,0,0,1,580.59,97.88Z"></path><path class="cls-2" d="M653.27,43.7l-25.16,65.68L602.28,43.7H591l31.75,78.35-7.09,18.06a49.66,49.66,0,0,1-2,4.65,20.67,20.67,0,0,1-2.61,4.13,12.8,12.8,0,0,1-3.63,3,9.7,9.7,0,0,1-4.82,1.18,18.17,18.17,0,0,1-4.64-.59q-2.28-.59-4.47-1.26l-1,9.45a44.28,44.28,0,0,0,4.9,1.1,30.94,30.94,0,0,0,5.06.42q8.44,0,13.51-4.39a29.11,29.11,0,0,0,7.94-12L664.08,43.7Z"></path><circle class="cls-2" cx="62.26" cy="57.75" r="14.05"></circle></g></g></svg> 