<?xml version="1.0" encoding="utf-8"?>
<!-- Generator: Adobe Illustrator 16.0.4, SVG Export Plug-In . SVG Version: 6.00 Build 0)  -->
<!DOCTYPE svg PUBLIC "-//W3C//DTD SVG 1.1//EN" "http://www.w3.org/Graphics/SVG/1.1/DTD/svg11.dtd">
<svg version="1.1" id="Layer_1" xmlns="http://www.w3.org/2000/svg" xmlns:xlink="http://www.w3.org/1999/xlink" x="0px" y="0px"
	 width="280px" height="90px" viewBox="0 0 280 90" enable-background="new 0 0 280 90" xml:space="preserve">
<g>
	<path fill="#C41425" d="M250,75.8h10.4V54.7c0-9.7,4.2-13.3,10.4-13.3c2.4,0,4,0.6,5.7,1.4l3.5-9.4c-1.9-1.1-4-1.9-7.1-1.9
		c-4.7,0-9.7,2.2-12.6,9l0.1-8.2H250V75.8z M212.4,50.4c1.2-6.5,5.9-10.2,12.6-10.2c7.2,0,10.8,4.3,11.7,10.2H212.4z M212.4,57.6
		h34.8c0.7-15.2-7.6-26.2-22.4-26.2c-13,0-23.1,9.7-23.1,22.6c0,13,9.6,22.6,24.4,22.6c8.7,0,14.2-3,18.2-7l-6.1-6.4
		c-2.5,2.4-6.6,4.7-12.3,4.7C218.2,67.9,213.7,63.9,212.4,57.6 M188.2,75.8h10.4V0h-10.4V75.8z M176.7,76.8c5.6,0,9-2.1,11.1-4.1
		l-4.9-7c-1.1,0.9-2.7,2.1-5.2,2.1c-2.7,0-4.3-1.5-4.3-6.4V41.2h11.5v-8.8h-11.5V9.7H163v22.6h-6.5v8.8h6.5v20
		C163,72.7,168.5,76.8,176.7,76.8 M142.2,76.7c12.3,0,16.8-6.1,16.8-13.5c0-9.2-7.4-11.9-14.2-13.6c-6.8-1.8-9.5-2.5-9.5-5.8
		c0-2.6,2.2-4,6.1-4c3.9,0,6.9,1.9,9,4.2l6.1-6c-3.3-3.6-8.1-6.5-15-6.5c-8.5,0-15.5,4.1-15.5,12.8c0,8.6,6.4,11.6,12.8,13.3
		c7.3,2.1,10.5,2.6,10.5,6.1c0,2.9-2.4,4.7-7.6,4.7c-4.9,0-9-1.8-11.6-5.6l-7.1,5C125.7,72.4,132.3,76.7,142.2,76.7 M110.9,75.8
		h10.5V32.4h-10.5V75.8z M116.2,22.5c3.7,0,6.9-2.8,6.9-6.9c0-3.9-3.2-6.8-6.9-6.8c-3.7,0-6.9,2.9-6.9,6.8
		C109.3,19.7,112.5,22.5,116.2,22.5 M67.2,75.8h10.4V52.2c0-7,4.4-11.2,11.2-11.2c6.1,0,9,3.6,9,9.8v24.9h10.4V50.1
		c0-11.8-6.6-18.6-16.2-18.6c-6.5,0-11.6,3.2-14.4,8.6V0H67.2V75.8z M18.9,76.8H20l11.1-21.1c1.4-2.8,2.7-7.3,2.7-7.3s1,4.5,2.5,7.3
		L47,76.8h1.1l19-44.5H56.7L49.6,51c-1.2,3.2-2.6,8.2-2.6,8.2s-1.5-5.1-3.1-8.2l-9.6-19.4h-1L24,50.2c-1.6,3.2-3,8.2-3,8.2
		s-1.3-4.9-2.6-8.2l-6.9-17.8H0L18.9,76.8z"/>
</g>
<g>
	<path fill="#FFFFFF" d="M272.3,89.9h5.7v-1.5h-4v-1.2h3.3v-1.5H274V83h3.8v-1.5h-5.5V89.9z M267.9,90h0.2v-8.4h-1.6V85
		c0,0.6,0.1,1.5,0.1,1.5s-0.6-0.8-1-1.1l-4.2-4h-0.2v8.4h1.6v-3.5c0-0.6-0.1-1.5-0.1-1.5s0.6,0.7,1,1.1L267.9,90z M255.3,89.9h1.7
		v-8.3h-1.7V89.9z M245.1,89.9h6.3v-1.5h-3.6l3.8-6.7v-0.1h-5.8V83h3.1l-3.8,6.7V89.9z M237,87.5l0.6-1.4c0.2-0.6,0.5-1.5,0.5-1.5
		s0.3,0.9,0.5,1.5l0.6,1.4H237z M234.4,89.9h1.7l0.4-0.9h3.4l0.4,0.9h1.8l-3.8-8.4h-0.1L234.4,89.9z M228,90c1.5,0,2.7-0.6,3.2-1
		v-3.6h-3.6v1.5h2v1.2c-0.4,0.2-1.1,0.3-1.6,0.3c-1.7,0-2.8-1.2-2.8-2.8s1-2.7,2.5-2.7c1,0,1.4,0.3,1.9,0.8l1.2-1.2
		c-0.7-0.8-1.7-1.2-3-1.2c-2.5,0-4.2,1.8-4.2,4.3C223.5,88.2,225.3,90,228,90 M216,87.5l0.6-1.4c0.2-0.6,0.5-1.5,0.5-1.5
		s0.3,0.9,0.5,1.5l0.6,1.4H216z M213.3,89.9h1.7l0.4-0.9h3.4l0.4,0.9h1.8l-3.8-8.4H217L213.3,89.9z M201.3,89.9h1.6v-3.1
		c0-0.6-0.1-1.5-0.1-1.5s0.5,0.7,0.9,1.2l1.7,1.9h0.2l1.7-1.9c0.4-0.4,0.9-1.2,0.9-1.2s-0.1,0.9-0.1,1.5v3.1h1.7v-8.4h-0.1l-4,4.5
		l-4.1-4.5h-0.1V89.9z"/>
</g>
<g>
</g>
<g>
</g>
<g>
</g>
<g>
</g>
<g>
</g>
<g>
</g>
</svg>
