<svg class="svg-fill" xmlns="http://www.w3.org/2000/svg" xmlns:xlink="http://www.w3.org/1999/xlink" version="1.1" x="0px" y="0px" width="106px" height="40px" viewBox="0 0 106 40" enable-background="new 0 0 106 40" xml:space="preserve"><path d="M86.8 23.4c-0.4 4.2-3.7 6.9-8.2 6.9c-5.7 0-8.9-4.3-8.9-9.5c0-5.5 2.9-10.3 9.4-10.3c3.8 0 7.1 2.2 7.6 6.2 h-0.8c-0.6-3.7-3.5-5.4-6.8-5.4c-6.4 0-8.6 5.1-8.6 9.6c0 4.6 2.8 8.8 8.1 8.8c4 0 7.1-2.4 7.4-6.1H86.8z"/><path d="M102.7 18.7L102.7 18.7c-1.1 1.4-4.6 1.3-7.9 1.5c-3.2 0.2-6.1 0.9-6.1 4.9c0 2.2 1.5 4.4 5.9 4.4 c5.2 0 8.1-3.6 8.1-7.3V18.7z M89.1 16.8c0.2-3.6 2.7-6.3 7.7-6.3c3.6 0 6.5 1.3 6.7 5.4v12c0 1.4 1.4 1.3 2.5 1.2v0.7 c-1.5 0.1-3.3 0.1-3.3-1.8v-2.5h-0.1c-0.8 2.4-3.8 4.7-8 4.7c-4 0-6.7-1.8-6.7-5.1c0-4.7 3.6-5.4 6.9-5.7c5.5-0.3 7.9-0.2 7.9-3.1 c0-2.3-0.5-5.2-5.9-5.2c-4.2 0-6.6 2-6.9 5.6H89.1z"/><path d="M70.6 28.8c0-0.8-0.7-1.4-1.5-1.4c-0.8 0-1.5 0.6-1.5 1.4c0 0.8 0.7 1.4 1.5 1.4 C69.9 30.2 70.6 29.6 70.6 28.8"/><path d="M19.4 15.8c0-2.3-1.5-3.8-4.4-3.8H7.7v7.6H15C17.4 19.5 19.4 18.1 19.4 15.8z"/><path d="M68.8 29.3c0-1.2-0.2-1.8-0.3-2.2c0 0 0 0 0 0c-0.2-0.7-0.5-1-0.8-1.5c-2.2-3.4-3.9-6.2-5.3-8.4l-3.6 12.4 h-2.1l-5.2-17.3h-0.1l-5.2 17.3h-2.1l-5.7-19.3h2.1l4.7 16.9h0.1l5-16.9h2.4l5 16.9h0.1l3.3-12.1c-4.3-6.8-4.4-6.8-4.4-6.8l4.9-2.7 c1.1-0.6 3-0.6 3-0.6l0.3 0c0 0 0-0.1 0-0.1H0v30h68.8v-5.4C68.8 29.4 68.8 29.3 68.8 29.3z M19.8 29.6c-0.5-0.8-0.5-2.2-0.5-3 c-0.2-2.7-0.4-5.7-4.1-5.6H7.7v8.6h-2V10.4h9.4c3.4 0 6.2 1.5 6.2 5c0 2.4-1.3 4.4-4 4.9v0.1c2.7 0.3 3.4 2.1 3.6 4.3 c0.1 1.3 0.1 4 0.9 4.9H19.8z M37.8 29.6H23.5V10.4h14.2v1.6H25.4v7h11.4v1.6H25.4v7.6h12.4V29.6z"/><g></g><g></g><g></g><g></g><g></g><g></g></svg>