<svg class="svg-fill" xmlns="http://www.w3.org/2000/svg" xmlns:xlink="http://www.w3.org/1999/xlink" version="1.1" x="0px" y="0px" width="96px" height="40px" viewBox="258 376 96 40" enable-background="new 258 376 96 40" xml:space="preserve"><g><path d="M349.3 387c-0.1 0-0.1-0.1-0.2-0.1c-1.2-0.6-2.3-1.2-2.3-1.8c0-0.7 0.7-1.1 1.8-1.1c1.1 0 1.8 0.1 2.9 0.5 c0.4-0.4 0.6-0.7 1-1.1c0.5-0.5 0.8-1 1.2-1.4c-1.8-0.7-3.5-1-5-1c-3.4 0-6.1 1.2-6.1 3.8c0 2 2.3 3.2 4.3 4.2 c1.3 0.7 2.8 1.4 2.8 2.2c0 0.8-0.7 1.2-2 1.2c-1.2 0-2.3-0.2-3.6-0.7l-1.1 1.2c-0.4 0.4-0.6 0.7-1 1.2c1.9 1.1 3.5 1.3 5.6 1.3 c3.8 0 6.2-1.2 6.2-4C353.8 389.3 351.4 388 349.3 387z" /><path d="M337.1 387c-0.1 0-0.1-0.1-0.2-0.1c-1.2-0.6-2.3-1.2-2.3-1.8c0-0.7 0.7-1.1 1.8-1.1c1.1 0 1.8 0.1 2.9 0.5 c0.4-0.4 0.6-0.7 1-1.1c0.5-0.5 0.8-1 1.2-1.4c-1.8-0.7-3.5-1-5-1c-3.4 0-6.1 1.2-6.1 3.8c0 2 2.3 3.2 4.3 4.2 c1.3 0.7 2.8 1.4 2.8 2.2c0 0.8-0.7 1.2-2 1.2c-1.2 0-2.3-0.2-3.6-0.7l-1.1 1.2c-0.4 0.4-0.6 0.7-1 1.2c1.9 1.1 3.4 1.3 5.6 1.3 c3.8 0 6.2-1.2 6.2-4C341.5 389.3 339.1 388 337.1 387z"/><polygon points="318,395.3 328.3,395.3 328.3,392.4 321.4,392.4 321.4,389.6 327.7,389.6 327.7,386.9 321.4,386.9 321.4,384.4 328.3,384.4 328.3,381.4 318,381.4"/><path d="M293.4 387c-0.1 0-0.1-0.1-0.2-0.1c-1.2-0.6-2.3-1.2-2.3-1.8c0-0.7 0.7-1.1 1.8-1.1s1.8 0.1 2.9 0.5 c0.4-0.4 0.6-0.7 1-1.1c0.5-0.5 0.8-1 1.2-1.4c-1.9-0.7-3.5-1-5-1c-3.4 0-6.1 1.2-6.1 3.8c0 2 2.3 3.2 4.3 4.2 c1.3 0.7 2.8 1.4 2.8 2.2c0 0.8-0.7 1.2-2 1.2c-1.2 0-2.3-0.2-3.6-0.7l-1.1 1.2c-0.4 0.4-0.6 0.7-1 1.2c1.9 1.1 3.4 1.3 5.6 1.3 c3.8 0 6.2-1.2 6.2-4C297.8 389.3 295.4 388 293.4 387z"/><path d="M281.8 389.9c0 1.9-0.6 2.8-2.6 2.8s-2.5-1-2.5-2.8v-8.5h-3.7v8.9c0 3.5 1.7 5.3 6.2 5.3 c4.6 0 6.2-1.8 6.2-5.3v-8.9h-3.6V389.9z"/><path d="M268.2 388c1.9-0.5 2.6-1.7 2.6-3.1c0-2.4-1.6-3.5-6.5-3.5h-5.5v13.9h5.6c4.4 0 6.8-1.1 6.8-3.7 C271.3 389.8 270.5 388.4 268.2 388z M262.2 383.9h2.4c1.8 0 3 0 3 1.3c0 1.4-1.2 1.6-3.2 1.6h-2.2V383.9z M264.7 392.9h-2.5v-3.1 h2.9c1.8 0 3 0 3 1.6S266.8 392.9 264.7 392.9z"/></g><g><path d="M265.9 397.9c-0.7 2.9-1.6 6.2-2.4 9.1l-2.4-9.1H258l4 13h3c1.3-4.3 2.6-8.6 4-13H265.9z"/><path d="M271.3 397.9l-4.1 13h2.9c0.2-0.6 0.4-1.3 0.6-1.9h4.1l0.6 1.9h3c-1.4-4.3-2.8-8.6-4.1-13H271.3z M271.2 406.8l1.4-5.2l1.4 5.2H271.2z"/><polygon points="286.3,405 282.5,397.9 279.4,397.9 279.4,410.9 282.1,410.9 282.1,403.3 286.3,410.9 289.1,410.9 289.1,397.9 286.3,397.9"/><path d="M297.8 408.2c-0.4 0.1-0.8 0.4-1.7 0.4c-1.9 0-2.4-0.7-2.4-4.1c0-3.4 0.5-4.1 2.4-4.1 c0.7 0 1.3 0.2 1.7 0.4c0.5-0.7 1-1.6 1.4-2.3c-0.8-0.4-1.9-0.6-3.4-0.6c-1.8 0-3 0.4-3.7 1.1c-1.3 1.1-1.6 2.9-1.6 5.5 c0 2.6 0.4 4.6 1.7 5.6c0.8 0.5 2 0.8 3.7 0.8c1.4 0 2.6-0.4 3.5-0.7c-0.5-0.7-1-1.4-1.3-2.2C298.1 408.1 298 408.2 297.8 408.2z"/><path d="M309 398.9c-0.7-0.6-2-1.1-3.7-1.1c-1.8 0-3 0.5-3.7 1.1c-1.4 1.2-1.6 3.1-1.6 5.5c0 2.5 0.1 4.4 1.7 5.6 c0.6 0.6 1.8 1 3.5 1s2.9-0.4 3.7-1c1.4-1.2 1.7-3.1 1.7-5.6C310.6 402 310.4 400 309 398.9z M305.2 408.5c-2.2 0-2.3-1.2-2.3-4.1 c0-2.9 0.1-4.1 2.3-4.1s2.3 1.2 2.3 4.1C307.4 407.3 307.2 408.5 305.2 408.5z"/><path d="M319.2 406.1c0 1.7-0.5 2.2-1.9 2.2s-1.9-0.5-1.9-2.2v-8.2h-3v8.6c0 1.4 0.2 2.5 1.2 3.4 c0.5 0.6 1.7 1.1 3.5 1.1s3.1-0.5 3.8-1.1c1-0.8 1.2-2 1.2-3.4v-8.6h-2.9V406.1z"/><path d="M328.4 407l-2.4-9.1h-3.1l4 13h3c1.3-4.3 2.6-8.6 4-13h-3C330.1 400.8 329.3 404.2 328.4 407z"/><polygon points="338.2,405.6 342.5,405.6 342.5,403.1 338.2,403.1 338.2,400.7 342.8,400.7 342.8,397.9 335.2,397.9 335.2,410.9 343,410.9 343,408.2 338.2,408.2"/><path d="M354 402.2c0-2.5-1-4.2-5.2-4.2h-4.2v12.8h2.9v-4.1h1.7l1.7 4.1h3c-0.6-1.6-1.3-3.1-2-4.7 C353.5 405.4 354 403.7 354 402.2z M348.7 404.5l-1.1-0.1v-4h1.1c1.8 0 2.5 0.4 2.5 2C351.2 404.2 350.5 404.5 348.7 404.5z"/></g><g><polygon points="312.7,381.4 312.7,388.9 308.6,381.4 305.3,381.4 305.3,395.3 308.3,395.3 308.3,387.1 312.8,395.3 315.7,395.3 315.7,381.4"/><rect x="299.5" y="381.4" width="3.2" height="13.9"/></g></svg>