<?xml version="1.0" encoding="utf-8"?>
<!-- Generator: Adobe Illustrator 16.0.4, SVG Export Plug-In . SVG Version: 6.00 Build 0)  -->
<!DOCTYPE svg PUBLIC "-//W3C//DTD SVG 1.1//EN" "http://www.w3.org/Graphics/SVG/1.1/DTD/svg11.dtd">
<svg version="1.1" id="Layer_1" xmlns="http://www.w3.org/2000/svg" xmlns:xlink="http://www.w3.org/1999/xlink" x="0px" y="0px"
	 width="280px" height="43px" viewBox="0 0 280 43" enable-background="new 0 0 280 43" xml:space="preserve">
<path d="M21.5,0C9.6,0,0,9.6,0,21.5C0,33.4,9.6,43,21.5,43s21.5-9.6,21.5-21.5C43.1,9.6,33.4,0,21.5,0z M29.8,7.4H17.1v12.2h11.3
	v2.6H17.1v16.5h-3V4.8h15.6V7.4z"/>
<g>
	<polygon points="68.6,7.9 64.1,25 73.2,25 68.7,7.9 	"/>
	<path d="M68.7,0C56.8,0,47.2,9.6,47.2,21.5c0,11.9,9.6,21.5,21.5,21.5c11.9,0,21.5-9.6,21.5-21.5C90.2,9.6,80.6,0,68.7,0z
		 M76.5,38.1l-2.7-10.5H63.5l-2.8,10.5h-2.9L67,4.2h3.4l9.1,33.9H76.5z"/>
</g>
<g>
	<path d="M115.9,0C104,0,94.3,9.6,94.3,21.5c0,11.9,9.6,21.5,21.5,21.5c11.9,0,21.5-9.6,21.5-21.5C137.4,9.6,127.8,0,115.9,0z
		 M124.6,40.1l-3.8-3.1c-1.5,1.3-3.5,2-6,2c-2.3,0-4.1-0.6-5.5-1.8c-1.4-1.2-2.4-2.7-3-4.6c-0.6-1.9-1-3.7-1.1-5.6
		c-0.2-1.9-0.2-4.1-0.2-6.7c0-2.1,0.1-4.1,0.3-6c0.2-1.9,0.7-3.6,1.4-5.3c0.7-1.7,1.7-3,3-4c1.3-1,3.1-1.6,5.2-1.6
		c2.4,0,4.2,0.6,5.6,1.7c1.4,1.1,2.4,2.6,3,4.5c0.6,1.8,1,3.7,1.2,5.6c0.2,1.9,0.2,4.1,0.2,6.7c0,2.8-0.1,5.3-0.5,7.5
		c-0.3,2.2-1,4-2,5.6l3.7,3L124.6,40.1z"/>
	<path d="M120.9,11.5c-0.5-1.6-1.2-2.8-2.2-3.8c-1-1-2.3-1.5-4-1.5c-1.6,0-2.9,0.5-3.8,1.5c-1,1-1.7,2.3-2.1,3.8
		c-0.4,1.5-0.7,3.1-0.8,4.5c-0.1,1.5-0.2,3.2-0.2,5c0,2.2,0.1,4.1,0.2,5.7c0.1,1.6,0.4,3.2,0.9,4.7c0.5,1.5,1.2,2.7,2.2,3.7
		c1,0.9,2.3,1.4,4,1.4c1.4,0,2.5-0.4,3.5-1.2l-3.4-2.8l1.6-2l3.4,2.8c0.8-1.3,1.2-2.9,1.4-4.9c0.2-1.9,0.3-4.3,0.3-7.1
		c0-1.9-0.1-3.7-0.2-5.2C121.7,14.6,121.4,13,120.9,11.5z"/>
</g>
<g>
	<g>
		<path d="M149.8,3.9h-3.2V2.9h7.4v0.9h-3.2v11.3h-1.1V3.9z"/>
		<path d="M155.1,2.9h1v4.4h0c0.3-0.9,1.2-1.5,2.2-1.5c1.4,0,2.3,0.7,2.3,2.4v6.9h-1V8.6c0-1.3-0.5-1.9-1.6-1.9c-1.2,0-2,0.9-2,2.3
			v6.1h-1V2.9z"/>
		<path d="M168.4,12.2c-0.2,1.9-1.2,3.2-2.9,3.2c-1.9,0-3.1-1.3-3.1-4.8c0-3.2,1.1-4.8,3.2-4.8c2,0,2.9,1.4,2.9,4.4v0.4h-5v0.4
			c0,2.6,0.9,3.4,1.9,3.4c1.1,0,1.8-0.8,1.9-2.4H168.4z M167.4,9.8c0-2.3-0.7-3.1-1.9-3.1s-1.9,0.8-1.9,3.1H167.4z"/>
		<path d="M174.7,2.9h1.1v12.3h-1.1V2.9z"/>
		<path d="M177.8,6.1h0.9v1.3h0c0.5-1,1.4-1.5,2.3-1.5c1.4,0,2.3,0.7,2.3,2.4v6.9h-1V8.6c0-1.3-0.5-1.9-1.6-1.9c-1.2,0-2,0.9-2,2.3
			v6.1h-1V6.1z"/>
		<path d="M186.9,10.7c-1.3-0.5-1.8-1.3-1.8-2.2c0-1.9,1.2-2.6,2.7-2.6c1.7,0,2.5,0.9,2.5,2.5v0.3h-1V8.4c0-1.2-0.6-1.7-1.5-1.7
			c-1.2,0-1.7,0.6-1.7,1.5c0,0.6,0.2,1.1,1.2,1.5l1.5,0.6c1.2,0.5,1.7,1.3,1.7,2.3c0,1.6-0.9,2.7-2.8,2.7c-1.9,0-2.8-0.8-2.8-2.8
			v-0.3h1v0.2c0,1.3,0.6,2,1.8,2c1.1,0,1.8-0.6,1.8-1.6c0-0.8-0.3-1.3-1.2-1.7L186.9,10.7z"/>
		<path d="M192.2,2.9h1v1.8h-1V2.9z M192.2,6.1h1v9.1h-1V6.1z"/>
		<path d="M200.1,13.7L200.1,13.7c-0.3,1-1.2,1.7-2.3,1.7c-2,0-2.9-1.6-2.9-4.8c0-3.1,0.9-4.8,2.9-4.8c1.1,0,1.9,0.6,2.1,1.6h0V2.9
			h1v12.3h-0.9V13.7z M198,14.5c1,0,2-0.5,2-3.9c0-3.4-0.9-3.9-2-3.9c-1,0-2,0.5-2,3.9C196.1,14,197,14.5,198,14.5z"/>
		<path d="M208.6,12.2c-0.2,1.9-1.2,3.2-2.9,3.2c-1.9,0-3.1-1.3-3.1-4.8c0-3.2,1.1-4.8,3.1-4.8c2,0,2.9,1.4,2.9,4.4v0.4h-5v0.4
			c0,2.6,0.9,3.4,1.9,3.4c1.1,0,1.8-0.8,1.9-2.4H208.6z M207.6,9.8c0-2.3-0.7-3.1-1.9-3.1c-1.3,0-1.9,0.8-1.9,3.1H207.6z"/>
		<path d="M210.3,6.1h1v1.4h0c0.4-1,1.2-1.6,2.3-1.6c0.1,0,0.2,0,0.4,0.1v1c-0.2,0-0.3-0.1-0.5-0.1c-1.1,0-2.2,0.8-2.2,2.6v5.7h-1
			V6.1z"/>
		<path d="M216.5,10.7c-1.3-0.5-1.8-1.3-1.8-2.2c0-1.9,1.2-2.6,2.7-2.6c1.7,0,2.5,0.9,2.5,2.5v0.3h-1V8.4c0-1.2-0.6-1.7-1.5-1.7
			c-1.2,0-1.7,0.6-1.7,1.5c0,0.6,0.2,1.1,1.2,1.5l1.5,0.6c1.2,0.5,1.7,1.3,1.7,2.3c0,1.6-0.9,2.7-2.8,2.7c-1.9,0-2.8-0.8-2.8-2.8
			v-0.3h1v0.2c0,1.3,0.6,2,1.8,2c1.1,0,1.8-0.6,1.8-1.6c0-0.8-0.3-1.3-1.2-1.7L216.5,10.7z"/>
		<path d="M222.3,2.9h1.2v1.8c0,1-0.2,2-1.3,2.4V6.4c0.4-0.3,0.6-0.8,0.6-1.7h-0.5V2.9z"/>
		<path d="M233.9,9.9V8.9h3.9v6.3H237v-2h0c-0.4,1.4-1.5,2.2-2.7,2.2c-2.5,0-3.9-1.9-3.9-6.3c0-4.4,1.4-6.3,3.9-6.3
			c2.3,0,3.4,1.5,3.5,3.6h-1.1c0-1.5-0.8-2.7-2.4-2.7c-1.8,0-2.8,1.4-2.8,5.4c0,4,1.1,5.4,2.8,5.4c1.7,0,2.6-1.5,2.6-4.3V9.9H233.9z
			"/>
		<path d="M239.7,6.1h1v6.4c0,1.5,0.5,2,1.6,2c1.2,0,2-0.9,2-2.3V6.1h1v9.1h-0.9v-1.3h0c-0.5,1-1.4,1.5-2.3,1.5
			c-1.4,0-2.3-0.7-2.3-2.4V6.1z"/>
		<path d="M247.4,2.9h1v1.8h-1V2.9z M247.4,6.1h1v9.1h-1V6.1z"/>
		<path d="M255.3,13.7L255.3,13.7c-0.3,1-1.2,1.7-2.3,1.7c-2,0-2.9-1.6-2.9-4.8c0-3.1,0.9-4.8,2.9-4.8c1.1,0,1.9,0.6,2.1,1.6h0V2.9
			h1v12.3h-0.9V13.7z M253.2,14.5c1.1,0,2-0.5,2-3.9c0-3.4-0.9-3.9-2-3.9c-1,0-2,0.5-2,3.9C251.2,14,252.2,14.5,253.2,14.5z"/>
		<path d="M263.8,12.2c-0.2,1.9-1.2,3.2-2.9,3.2c-1.9,0-3.1-1.3-3.1-4.8c0-3.2,1.1-4.8,3.2-4.8c2,0,2.9,1.4,2.9,4.4v0.4h-5v0.4
			c0,2.6,0.9,3.4,1.9,3.4c1.1,0,1.8-0.8,1.9-2.4H263.8z M262.8,9.8c0-2.3-0.7-3.1-1.9-3.1c-1.3,0-1.9,0.8-1.9,3.1H262.8z"/>
		<path d="M270.4,6.9h-1.3V6.1h1.3V3.6h1v2.5h1.6v0.9h-1.6v6.5c0,0.7,0.3,1,1,1c0.2,0,0.4,0,0.6-0.1v0.9c-0.1,0.1-0.4,0.1-0.7,0.1
			c-1.4,0-1.9-0.4-1.9-1.6V6.9z"/>
		<path d="M276.8,5.9c2,0,3.2,1.6,3.2,4.8c0,3.2-1.1,4.8-3.2,4.8c-2,0-3.1-1.6-3.1-4.8C273.7,7.5,274.8,5.9,276.8,5.9z M276.8,14.5
			c1.2,0,2-1,2-3.9c0-2.9-0.9-3.9-2-3.9c-1.2,0-2,1-2,3.9C274.8,13.6,275.7,14.5,276.8,14.5z"/>
	</g>
	<g>
		<path d="M146.7,20.5l1.2,0.3l0.8-0.2l0.7,0.2l0.4-0.3l1.6,0.1l0.5,0.8v0.7l-0.2,0.7l0.9,1.3l-0.1,0.7l0.3,0.3l0.1,1l0.5,0.8
			l-0.2,1v0.6l0.4,0.7l-0.1,1.2l-0.3,0.5l0.4,0.1l-0.2,0.5l0.4,0.3l0.2-0.5l0.8,0.1l0.2-2l0.7-1.4l0.1-1.7l0.4-0.5v-1.2l0.5-1.2V22
			l0.3-0.5l0.3-0.7l0.6-0.6l0.7,0.2l1.1-0.1l0.4,0.6l0.3-0.1l-0.1-0.4h1l0.5,0.5l-0.1,0.3l0.4,0.8l0.1,0.7l0.5,0.8l-0.1,0.8l0.4,0.9
			l0.2,0.8l0.3,0.6l0.3,2.7l0.7,1.7l0.4,0.2l-0.1,0.6h0.8l0.3-0.6l-0.5-0.6l0-1l0.5-0.8l0.2-1.6l0.4-0.7v-1.3l0.4-1.4l0-1l0.5-0.6
			l0.2-1l0.3-0.5l0.9-0.1l0.8,0.2l1.6-0.1l0.5,0.4l0,0.5l-0.2-0.1l-0.2,0.8l-0.4,0.8l-0.1,1.3l-0.5,0.2l-0.1-1.5l-0.5-0.1l-0.1,0.5
			l-0.5,0.1l0.1,0.7l-0.3,0.3V25l1.2-0.1l0.1,1.6l-0.4,0.7l-0.5,1.6l0.1,0.9l-0.8,1.5l0.2,0.5l-0.4,2.4l-0.5,1l-0.1,0.8l-0.4,0.8
			l-0.2,1.4l-0.4,0.5l-0.1,1l-0.2,0.3h-4.1l-0.5-0.5l-0.1-0.9l-0.4-0.3l-0.2-2l-0.5-1l0.1-1.2l-0.4-0.7l-0.7-3.2l-0.6-0.5l-0.3,0.6
			h-0.6l-0.1,0.6h0.6l-0.2,1.6l-0.5,1l-0.2,1.4l-0.4,0.5l0.2,0.6l-0.2,0.9l-0.6,0.9l0.1,1l-0.3,0.9h-1.5l-0.3,0.3l-2.8,0.1l-0.3-0.7
			v-1.3l-0.5-0.7l0-1.3l-1.1-2.7l-0.4-2.4l-0.5-1.1l0.1-0.8l-0.3-0.5l-0.1-2.6l-0.7-0.3l-0.1-0.8l-0.9-2.6v-0.5l-0.4-0.4l0.4-0.3
			L146.7,20.5z M148.9,25.3l-0.2,0.6l0.8,0.3l0.3-0.7l-0.5,0.2L148.9,25.3z M150.6,23.2l-0.1,0.5h0.4l0.3,0.4l0.2-0.2l-0.2-0.5
			L150.6,23.2z M158.6,21.6l-0.5-0.1l0.1,0.5h0.9l-0.1-0.5L158.6,21.6z M159.3,22.5v0.4h0.4l-0.1-0.6L159.3,22.5z M164.8,38.3
			l-1,0.6l0.5,0.4l1.6-0.2l-0.1-0.5L164.8,38.3z M167.8,23.2l-0.1,0.7l0.7-0.2l-0.1-0.7L167.8,23.2z"/>
		<path d="M173.3,28.1l0.2-2.1l-0.1-2.5l0.2-0.5l-0.3-0.9l0.2-0.8l2.6,0l1.1-0.4l0.9,0.1l0.4,0.3l0,0.7v2.5l-0.1,1.7l-0.1,0.5l0,0.9
			l0.9,0.7l0.4-0.2l1-0.1l0.5,0.3l1.3-0.4l0.2-0.8v-4.4l0.2-1.2l0.3-0.5l4.3,0.1l0.6,0.3l0.1,1.2l-0.1,0.4l0.2,1.1l0,5.4l-0.2,1.2
			l0.1,1.8l-0.2,0.4l0.2,4.9l-0.2,1.1l-1,0.5l-2.7-0.2l-0.7,0.1l-0.5-0.5l-0.1-1.6l0.2-1.4l0.3-1.2l-0.1-1.1l-0.8-1.5l-2.1,0.1
			l-1.6-0.4l-0.7,0.9v1.4l0.2,0.4l-0.3,1.5v1.4l0.5,0.9v0.7l-0.4,0.5l-0.6,0.2l-0.6-0.3l-1.4,0.3l-2.1-0.3l-0.3-2.8l0.1-0.9
			L173.3,28.1z M176.3,25.2l0.2,0.7l0.6,0.2l0.3-1.1l-0.7-0.4L176.3,25.2z M176.6,23.9l-0.3,0.1l0.6,0.3l0.2-0.8l-0.5-0.4
			L176.6,23.9z M186.2,37.4l0.1,0.9l0.5-0.2l0.1-0.8l-0.3-0.5L186.2,37.4z"/>
		<path d="M190.9,29l0.1-3.3l-0.1-0.3l0.1-1.1l0.3-1.2l-0.1-0.7L191,22v-0.7l0.3-0.4h1.2l0.5,0.2h2.2l0.3-0.4l0.4-0.2l0.6,0.3
			l-0.1,0.5l0.1,1.5l-0.1,0.1l0.2,0.7l-0.1,0.4l0.1,0.3l-0.4,2.9v3.1l0.3,0.6l-0.2,0.9l0.3,2.2l-0.1,0.3l0.2,1.5l-0.1,2.1l0.1,0.2
			l-0.2,1.4l-0.8,0.4l-0.9-0.2h-1l-0.7,0.2h-1l-0.7,0.1l-0.4-0.3l-0.2-1.8l0.2-0.4l-0.2-1.2v-4.8l-0.1-1.7L190.9,29z M192.3,38.4
			l-0.3,0.9l0.6-0.4l0.4,0.4l0.8,0l-0.1-0.4L192.3,38.4z M192,30l0.5,0.2l-0.1,0.2l0.5,0.7l0.1-0.8l0.2-0.4l-0.6-0.4l-0.5,0.2
			L192,30z M192.6,22.6V23h0.5l0.5-0.4l-0.3-0.3l-0.3,0.3H192.6z M195.4,26l-0.4,0l0.2,0.5l-0.1,0.7l0.5-0.3L195.4,26z"/>
		<path d="M199.6,34.1l0.9,0l0.6-0.3l1.3-0.1l0.6-0.5l0.6,0l0.8,1.2l0.5,0.3l0.5,0.8l0.7,0.2l1.6-0.4l0.5,0.3l0.6-0.5v-0.3l0.6-0.7
			v-0.5H209l-1.2-1h-1.2l-1.7-0.7l-1.4-0.1l-0.5-0.4l-0.4-0.1l-1.9-1.8l-0.7-1.2V27l0.3-0.5l-0.3-1.4l0.2-0.3l0-0.4l1.2-1.9l2.2-1.2
			l1.7-0.1l0.2-0.6l0.9-0.1l2.7,0.3l1.3,0.7l1.2,0.5l1.1,0.9l1.2,1.9l-0.4,0.5h-0.3l-0.5,0.3l-2,0.3l-0.5,0.4l-0.8-0.3l-1.2-1.3
			l-1.4-0.1l-0.3,0.2l-0.6-0.1l-0.8,0.8v0.8l1,0.7l0.5,0.7l1.4-0.1l0.7,0.4h1.1l2.3,1.1l1.8,1.8l0.3,1.5l0.3,0.4l-0.2,1.2l-0.5,0.2
			l-0.2-0.4l-0.1-1.4l-0.4-0.3l-0.5,0.1l0.1,1.2l0.5,0.7l-0.2,0.5l0.5,0.2L214,36l-0.8,0.4l-0.3,0.7l-0.9,1l-0.8,0.2l-0.6,0.4
			l-1.8,0.4l-0.6,0.4l-4.4-0.2l-0.6-0.5l-0.6-0.1l-0.3-0.3l-0.9-0.3l-1.1-1l-0.2-0.6l-1.1-1.2l0.1-0.6L199.6,34.1z M201.1,35.8
			l-0.1,0.4l0.5,0.1l0.3,0.8l0.3,0l-0.1-0.5l0.5,0l-0.1-0.4L201.1,35.8z M202.1,24.6l-0.4,0.7l0.3,0.5l0.4-0.6L202.1,24.6z
			 M203.9,37.1l0.2,0.4l0.9,0l0.1-0.4l-0.4-0.2l-0.2,0.2l-0.3-0.2L203.9,37.1z M204.5,37.8l-0.1,0.1l0.2,0.4h0.4L204.5,37.8z
			 M204.6,38.7l0.1,0.3l0.9,0v-0.4L204.6,38.7z M205,36.8l0.6,0.1l0.1-0.3l-0.4-0.2L205,36.8z M205.7,37.3l-0.2,0.3l0.3,0.4l0.2-0.4
			L205.7,37.3z M208.5,37.2l0.1,0.4l0.3,0.2l0.2-0.1l-0.2-0.5L208.5,37.2z M209.7,33l-0.2,0.4l0.6,0.5l0.1-0.2L209.7,33z
			 M210.4,36.4l-0.2,0.4l0.1,0.1l0.6-0.3l0-0.2L210.4,36.4z M210.9,23v0.6l0.5,0.2l0.2-0.4l-0.3-0.7L210.9,23z M211.5,30.6l0,0.3
			l0.7,0.5l0.7-0.7l-0.9-0.1L211.5,30.6z M211.9,31.9l0.1,0.5l0.4,0.3l0-0.5L211.9,31.9z M212.3,35.6l-0.2,0.4l0.1,0.4l0.6-0.2
			l0.1-0.6H212.3z"/>
		<path d="M216.5,21l0.7,0.3l0.2-0.4h0.5l1.9-0.1l0.9,0.1l0.8-0.1h1.8l0.9,0.1l1.1-0.1l0.9,0.3l1.2-0.2l0.3,0.4l0.3-0.2l-0.2-0.3
			h0.8l0.4,0.8l0,3.1l-0.6,0.6l-1.2,0.1l-0.6-0.3l-1.1,0.6l-0.1,0.3l-0.4,0.6l-0.1,0.5l0.3,0.5l0.1,1.4l-0.1,0.6l0,3.3l-0.3,0.8
			l0.3,1.3l-0.1,4l-0.5,0.9h-1.2l-0.6-0.2l-0.8,0.3l-0.8-0.3l-0.7,0.4l-0.7-0.4l0.1-1.1l0.3-0.9l-0.3-0.8l0.5-2.4l-0.5-0.5l0.2-2
			l-0.2-3.3V26l-0.7-0.7l-1,0.3l-1.6,0.1l-0.7-1v-2.6L216.5,21z M217.8,22.8l0.1,0.9l0.3,0.2l0.3-0.6l-0.2-0.7L217.8,22.8z
			 M226.4,21.9l0.2-0.5l-0.6-0.1l-0.1,0.3L226.4,21.9z M226.2,23.5l0.3,0.3l0.5-0.3l0.4,0.3l0.3-0.4l-0.5-0.5L226.2,23.5z"/>
		<path d="M230.3,22.2l-0.2-0.5l0.2-0.3l0.3,0.2l0.7-0.7h1.6l0.1,0.3l0.4-0.4l1.7,0.3l0.3-0.3l0.3,0.2l0.1,0.3l0,1.8h-0.3l-0.1,0.5
			l0.3,0.7l0,2.2l-0.1,0.8v1.6l-0.3,1l-0.5,0.1l-0.2,0.4l0.7,0.6l-0.5,0.9l0.2,0.5l0.2-0.3l0.7,0.5l0.1,2.6l0.8,0.9l1-0.3l0.8,0.1
			l0.3,0.2l0.6-0.4h0.6l-0.1,0.5l0.2,0.2l0.7-0.2l0.1,0.2l0.7,0v-0.3l0.6-0.4l0.9,0.1l0.2,2.2l-0.2,0.3l0,1.3l-0.5,0.3l-1.3-0.1
			l-0.3,0.1l-0.4-0.2l-0.1,0.2l-1.8,0.1l-0.7-0.2l-3.4-0.1l-0.6,0l-0.5-0.1l-0.6,0.1H232l-0.4,0.1l-0.8-0.2l-0.4-0.1l0.1-0.8
			l0.3-0.3l-0.3-0.9l-0.1-4l0.1-0.8l-0.1-1.8l0.2-1.6l-0.1-0.8l0.3-0.1l-0.3-0.3l0-1.4L231,26l-0.4-0.7l0.2-0.4h-0.2l0-0.7l-0.4-0.6
			L230.3,22.2z M231.5,22.2l-0.1,0.8l0.5,0.1l0-0.2l0.5,0l-0.1-0.6L231.5,22.2z M231.6,38.7v0.6l0.6-0.1l0.2-0.2l-0.2-0.3
			L231.6,38.7z M233.5,21.3l0.1,0.5l1.4-0.4l-0.6-0.2L233.5,21.3z M235.1,22.8l-0.3,0.3l0.6,0.3l0.1-0.3L235.1,22.8z M236.3,31
			l-0.1,0.6h-0.3l-0.3-1l0.2-0.6l0.4-0.1L236.3,31z M239.7,37.8l0.8,0l0.2-0.4l-0.9-0.1L239.7,37.8z M241.7,37l0.6,0.3l-0.3,0.4
			l0.1,0.6h0.3l0.3-1l-0.2-0.6l-0.3-0.1L241.7,37z"/>
		<path d="M245.5,24.3l0.2-2.7l0.4-0.9h2l0.2,0.6l1.6-0.4l0.5,0.7l0.2-0.7l3.8-0.1l0.3,0.5l0.4,0.1l0.3-0.5l1.2,0.2l0.8-0.3l1.4,0.3
			l0.5,0.7l-0.3,1.7l0.2,1.2l-0.4,0.6l-4.7-0.3l-0.6,0.3l-1.3-0.3l-1.2,0.3l-0.5,0.9l0.3,0.8l0.5,0.8l-0.1,0.4l0.9,0.5l0.4-0.5
			l1,0.2l0.3-0.3l2.2-0.4l1.2,0.2l0.5,1.2l-0.2,0.7l0,1.7l-0.4,0.5h-1.3l-0.2-0.1l-1.6,0.1l-0.3-0.2l-2.1,0.3l-0.3,0.8l-0.2,2.1
			l-0.4,0.3l0.3,0.6l0.5-0.5l0.2,0.1l2.5-0.1l0.9-0.3h2.2l0.6,0.2l0.9-0.1l0.4,1.1v2.6l-0.3,0.5h-1l-0.7-0.3l-1.3,0l-1,0.5l-1.1-0.7
			l-0.7,0.2l-0.3-0.3l-0.3,0.2l0.1,0.4l-0.9,0.3l-3.7,0l-1.1,0.1l-0.6-0.1l-0.3-0.3l0.1-8l-0.1-0.7v-3l-0.5-1.6L245.5,24.3z
			 M254.3,38.7V39l0.4,0.1l0.1-0.3H254.3z M256.1,29.9l-0.1,0.5l0.4,0.4l0.2-1L256.1,29.9z M256.7,22.8v0.5l1,0.5l0.7-0.2l-0.2-0.7
			l-0.5-0.3L256.7,22.8z M256.9,37.8l0.6,0.4l0.6-0.8l-0.5-0.8l-0.2,0.5l0.1,0.3L256.9,37.8z"/>
		<path d="M261.5,23l-0.2-0.5l0.2-1l0.5-0.6h1.1l0.3,0.2h2.9l0.6,0.2l0.9-0.5l1.6,0.1l0.2-0.1l2,0.1l1,0.4l1.2-0.1l0.5,0.4l0.5,0
			l0.9,0.6l1.3,1.6l0.3,1.2l0.3,0.7l0.1,1.8l-0.6,0.9l-0.1,0.9l-0.5,0.9l-0.5,0.3l-1,0.8l-0.5,0.3l-0.4-0.1l0.1-0.7l-0.3-0.1
			l-0.5,0.4l0.4,0.7l0,0.5l-0.4,0.2l-0.1,0.5l0.3,0.4l0.1,0.5l0.4-0.3l-0.1-0.3l0.1-0.5l0.4-0.1l0.6,1.4l0.4,0.4l0,0.8l0.3,0.8
			l0.1,0.5l0.4,0.5L277,38l0.6,1.1l0,0.5l-0.5-0.3l-0.1,0.3l0.3,0.3l-0.9-0.1l0.1-0.4H276l-0.1,0.4l-0.6,0.1l-1.1-0.1l-1.5,0.1
			l-0.6-0.6l-0.9-1.5l-0.1-1.4l-0.7-0.7v-0.6l-0.7-1.8l-0.4-0.7l-0.8-0.4h-0.8l-0.6,0.6l-0.1,0.5l0.2,0.6l-0.3,0.8l0.2,0.9l-0.2,1
			l0.5,0.7v1.9l-0.2,0.4l-0.4,0.2l-0.8-0.2l-0.5,0.2h-2.2l-0.6,0.3l-0.5-0.5l-0.1-0.7l-0.3-0.6l0.1-4.6l-0.1-0.8l0.3-2.9l-0.5-1.9
			l0.3-0.4l-0.3-0.8l0.4,0.1L262,27l-0.5-0.3v-0.8l-0.1-0.5L261.5,23z M262,27.5l0.1,0.3l0.4,0.5l0.3-0.1l-0.1-0.4l-0.3-0.4H262z
			 M262.8,22.1l-0.1,0.4l0.9,0.3l0.2-0.2l-0.3-0.4l-0.4,0.1L262.8,22.1z M263.4,37.2l0,0.3l0.4,0.2l0.1-0.4L263.4,37.2z M265.3,37.3
			l-0.1,0.3l0.1,0.3l0.4-0.3L265.3,37.3z M265.9,37l0.1,0.5l0.3-0.1l0.2-0.6L265.9,37z M267.2,29.4l0.4-0.2l0.2-0.7h2.9l0.8-0.5
			l0.4-0.4V26l-0.2-0.1l-0.8-0.9l-0.7-0.2l-1.3,0.2l-1.4-0.3l-0.3,0.6l-0.1,0.9l0.2,1.4l-0.5,1.2L267.2,29.4z M269.9,21.9l0.2,0.3
			l0.4,0.1L271,22l-0.4-0.3L269.9,21.9z M272,35.8l0.2,0.2h0.4l-0.1-0.4L272,35.8z M273.7,37.4v1l0.3,0.1l0.1,0.3l0.7-0.6l0.2,0.3
			l0.5-0.2l-0.5-0.3l0.3-0.1l0.3,0.2l0.3-0.2l-0.3-0.4l0.1-0.5l-0.2-0.2l-0.3,0.1l-0.3-0.2l-0.5,0.1v0.4l0.4-0.1v0.3l-0.5,0.3
			L273.7,37.4z M274.4,37.8l0.1,0.4l-0.3,0.1l-0.1-0.2L274.4,37.8z M274.2,33.9v0.3l0.3,0.1l0-0.4L274.2,33.9z M274.8,30.1h0.5
			l0.1-0.3l-0.5-0.3l-0.1,0.2V30.1z M275.1,28.2l-0.1,0.3l0.2,0.3l0.2-0.4l0.2,0.2l0.4-0.2l-0.1-0.3L275.1,28.2z M275.4,26.8
			l-0.1,0.4l0.5,0.1l0.1-0.1L275.4,26.8z M276.3,25.8l0.5,0.2l0.1,0.5h0.2l0.1-0.6l-0.2-0.3l-0.4-0.1L276.3,25.8z M276.3,27.3
			l0.1,0.3l0.6,0.1l0.2-0.4l-0.1-0.2L276.3,27.3z"/>
	</g>
</g>
<g>
</g>
<g>
</g>
<g>
</g>
<g>
</g>
<g>
</g>
<g>
</g>
</svg>
