<svg class="svg-fill" xmlns="http://www.w3.org/2000/svg" xmlns:xlink="http://www.w3.org/1999/xlink" version="1.1" x="0px" y="0px" width="86px" height="40px" viewBox="0 0 86 40" enable-background="new 0 0 86 40" xml:space="preserve"><polygon points="71.3,10.9 71.3,34.6 78.2,34.6 78.2,26.2 84.8,26.2 83.8,20.5 78.2,20.5 78.2,16.7 86,16.7 86,10.9"/><path d="M48.3 10.9h-6.9v23.7h6.9V10.9z M39.2 34.6V10.9h-6.9v8.6h-6.4v-8.6H19v23.7h6.9v-9h6.4v9H39.2z M17.9 33.4 L17 27.7c-1.6 1-3.1 1.5-4.7 1.5c-3.2 0-5.5-2.4-5.5-6.5c0-4.1 2.1-6.5 5.3-6.5c1.8 0 3.3 0.8 4.5 1.8l0.9-6.1 c-1.6-0.9-3.6-1.3-5.9-1.3C4.5 10.5 0 15.5 0 22.8C0 30.4 4.2 35 11.3 35C14 35 16 34.4 17.9 33.4"/><path d="M62.7 14.1c1.5 0.6 1.7 2.5 0.5 5.5l-4.9-2.1C59.7 14.6 61.2 13.5 62.7 14.1 M65.5 32.7l1.5-5.1 c-2.7 0.2-5.2 0-7.1-0.9c-2.3-1-3.7-2.6-3.1-5.4l11.4 4.9c0.3-0.4 0.6-1.1 1-1.9c2.6-6 2-11.9-4.3-14.6c-5.6-2.4-11.4-0.1-14.4 6.6 c-3.1 7.2-0.2 12.4 6.1 15.1C59.7 32.7 62.7 33 65.5 32.7"/><path d="M47.9 9.3V5.1h-0.8v1.6h-1.7V5.1h-0.8v4.2h0.8V7.4h1.7v1.8H47.9z M43.4 8.1c0-0.6-0.3-0.9-1.2-1.3 c-0.6-0.2-0.7-0.4-0.7-0.6c0-0.3 0.2-0.4 0.6-0.4c0.3 0 0.7 0.1 1 0.3l0.1-0.7C42.9 5.1 42.6 5 42.1 5c-0.8 0-1.3 0.4-1.3 1.2 c0 0.6 0.3 0.9 1.1 1.2c0.6 0.3 0.7 0.4 0.7 0.7c0 0.3-0.2 0.5-0.6 0.5c-0.4 0-0.8-0.2-1.2-0.4L40.8 9c0.4 0.2 0.8 0.3 1.3 0.3 C42.8 9.3 43.4 8.9 43.4 8.1 M39.6 5.1h-0.8v4.2h0.8V5.1z M37.5 9.3l-0.3-4.2h-1l-1 3.2l-1-3.2h-1l-0.3 4.2h0.7l0.2-3.1l1 3.1h0.7 l1-3.1l0.2 3.1H37.5z M30.4 5.9l0.6 1.6h-1.1L30.4 5.9z M28.4 9.3h0.8l0.4-1.1h1.6l0.4 1.1l0.8-0.1l-1.5-4.1H30L28.4 9.3z M27.6 7.6 V5.1h-0.8v2.5c0 0.6-0.3 1-0.9 1c-0.6 0-0.9-0.4-0.9-1V5.1h-0.8v2.6c0 1.1 0.6 1.7 1.6 1.7S27.6 8.7 27.6 7.6 M22.7 7.2 c0 0.9-0.4 1.5-1.1 1.5c-0.7 0-1.1-0.6-1.1-1.5c0-0.9 0.4-1.5 1.1-1.5C22.3 5.7 22.7 6.3 22.7 7.2 M23.5 7.1c0-1.3-0.8-2.1-1.9-2.1 c-1.2 0-1.9 0.9-1.9 2.2c0 1.1 0.5 1.8 1.4 2.1l2.3 0.8l0.1-0.7l-1.1-0.4C23.1 8.8 23.5 8.1 23.5 7.1 M19.2 8.1 c0-0.6-0.3-0.9-1.2-1.3c-0.6-0.2-0.7-0.4-0.7-0.6c0-0.3 0.2-0.4 0.6-0.4c0.3 0 0.7 0.1 1 0.3L19 5.3C18.7 5.1 18.4 5 18 5 c-0.8 0-1.3 0.4-1.3 1.2c0 0.6 0.3 0.9 1.1 1.2c0.6 0.3 0.7 0.4 0.7 0.7c0 0.3-0.3 0.5-0.6 0.5c-0.4 0-0.8-0.2-1.2-0.4L16.6 9 c0.4 0.2 0.8 0.3 1.3 0.3C18.7 9.3 19.2 8.9 19.2 8.1 M14.1 9.3V8.6h-1.7V7.4h1.3l-0.1-0.7h-1.2v-1h1.6V5.1h-2.4v4.2H14.1z M10.3 9.3V5.1H9.5v1.6H7.8V5.1H7v4.2h0.8V7.4h1.7v1.8H10.3z M6.8 5.8L6.7 5.1H3.5v0.7h1.2v3.5h0.8V5.8H6.8z"/></svg>