<svg class="svg-fill" xmlns="http://www.w3.org/2000/svg" xmlns:xlink="http://www.w3.org/1999/xlink" version="1.1" x="0px" y="0px" width="80px" height="40px" viewBox="0 0 80 40" enable-background="new 0 0 80 40" xml:space="preserve"><g><path d="M9.8 0.2c-1.7 0-3.4 0-5.1 0c-1.1 0-3.5 0-4.7 0.1v1c1.4 0 2.5 0.2 2.5 2.6v25.6c0 2.4-0.8 2.8-2.4 2.8v1H5 h4.1v-1c-1.5 0-2.5-0.2-2.5-2.7V18.3V4c0-2.7 0.7-2.8 2.6-2.8c2 0 3.4 3.5 3.4 8.5c0 5.5-1.2 8.6-5.1 8.6l0 1l1.7 0 c3.5 0 7.6-2.2 7.6-9.2C16.8 3.2 13.5 0.2 9.8 0.2z"/><path d="M22.8 29.7l0-25.7c0-2.4 1-2.7 2.7-2.7v-1h-8.3v1c1.6 0 2.2 0.2 2 2.6l-0.1 25.7l0 0.1 c0 2.4-0.5 2.7-2.1 2.7v1h0h8.3l0 0v-1C23.9 32.3 22.8 32.1 22.8 29.7z"/><path d="M45.4 5.1l0 1.4l0 17c0.1 5.7 2.3 10.4 7.3 10.5c5.8 0.2 7.3-5 7.3-11.6V5c0-2.7 0.9-3.7 2.4-3.7v-1h-4.8 h-2.3v1c3 0.2 2.7 0.8 2.7 4.1l0 16.9c-0.3 6.2-1 10.2-4.4 10.6c-3.5 0.4-4.3-5.4-4.5-8.8L49 5.2c0-2.5 0.9-4 2.5-4l0-1h0h-8.8v1 C45.4 1.4 45.4 2.3 45.4 5.1z"/><path d="M40.5 37.7c-2.6-0.3-3.6-2.5-7.1-2.5c-1.1 0-2.1 0.3-2.7 0.6c0 0 0-0.4 0.3-0.8c0.6-0.7 1.7-1.3 2.2-1.2 c0.2 0 0.7 0.1 1.4 0c4.5-0.3 8.3-6.9 8.3-16.6C42.9 4.5 37.7 0 33.9 0c-3.8 0-8.6 4.1-8.8 17.3v0.8c0.2 7 2.6 13.4 6 15.2 c0.1 0.1 0.2 0.1 0.4 0.2c-0.3 0.1-0.5 0.2-0.7 0.3c-1.7 0.7-2.9 1.6-2.8 2.8c0 0.5 0.4 1.1 0.9 1.4c0.2 0.1 1 0.4 1.3-0.1 c0.6-0.9 0.9-1 1.5-1.1c1.9-0.3 3.4 3.2 7.9 3.2c1.8 0 5.1-0.2 6.3-4.3h-1C44 37.3 42.4 37.9 40.5 37.7z M29.2 17.3 c-0.1-6.6 1.4-16 4.7-16c3.5 0 5.1 8.5 5.1 15.4c0 11.8-3.1 15.9-4.9 15.9C32 32.6 29.5 28.2 29.2 17.3z"/><path d="M71.4 32.6c-3.9-0.1-5.3-10.6-5.2-15.6l-0.1-0.2l0.1 0.2L80 12.7c-1.4-9.3-5.1-13.1-9.2-12.5 c-3.3 0-8.8 4.5-8.8 17.3c0 8.7 3.9 16.3 8.9 16.4c4.2 0.2 7.5-5.4 8.4-11.4l-1.5 0.4C76.6 30.8 72.5 32.6 71.4 32.6z M66.4 11.3 c0.9-6.1 1.7-8.9 4-9.6c2.7-0.8 5.1 4.3 5.3 10.7l-9.1 3l-0.4 0.1L66.4 11.3z"/><polygon points="48.5,37.8 48.5,37.8 47.6,35.6 46.9,35.6 46.9,39.4 47.6,39.4 47.6,37 47.6,37 48.6,39.4 49.2,39.4 49.2,35.6 48.5,35.6"/><polygon points="50.6,37.7 51.5,37.7 51.5,37.2 50.6,37.2 50.6,36.2 51.8,36.2 51.8,35.6 49.9,35.6 49.9,39.4 51.8,39.4 51.8,38.9 50.6,38.9"/><polygon points="54.9,38 54.8,38 54.4,35.6 53.8,35.6 53.3,38 53.3,38 52.8,35.6 52.1,35.6 52.9,39.4 53.6,39.4 54,36.9 54.1,36.9 54.6,39.4 55.2,39.4 55.9,35.6 55.3,35.6"/><path d="M56.8 36.5c0-0.2 0.1-0.4 0.3-0.4c0.2 0 0.3 0.1 0.4 0.4l0.6-0.1c-0.1-0.5-0.4-0.9-0.9-0.9 c-0.7 0-1 0.3-1 1c0 1.1 1.4 1.3 1.4 2.1c0 0.2-0.2 0.4-0.4 0.4c-0.2 0-0.4-0.2-0.4-0.6l-0.6 0.1c0 0.6 0.4 1.1 1 1.1 c0.6 0 1.1-0.4 1.1-1C58.2 37.5 56.8 37.1 56.8 36.5z"/><polygon points="60.3,38.5 60.2,38.5 59.6,35.6 58.9,35.6 58.9,39.4 59.3,39.4 59.3,35.9 59.3,35.9 60.1,39.4 60.4,39.4 61.2,35.9 61.2,35.9 61.2,39.4 61.6,39.4 61.6,35.6 60.9,35.6"/><path d="M62.9 35.6l-0.8 3.8h0.4l0.2-1.1h1l0.2 1.1h0.4l-0.8-3.8H62.9z M62.8 37.9l0.4-2.1h0l0.4 2.1H62.8z"/><path d="M65.8 35.9c0.4 0 0.6 0.4 0.6 0.9h0.4c-0.1-0.6-0.3-1.2-1-1.2c-0.7 0-1.1 0.5-1.1 2c0 1.5 0.4 2 1.1 2 c0.3 0 0.5-0.1 0.7-0.3l0.1 0.3h0.3v-1.8h-0.9V38h0.5v0.5c0 0.4-0.2 0.6-0.6 0.6c-0.5 0-0.7-0.4-0.7-1.6S65.3 35.9 65.8 35.9z"/><path d="M68.2 35.6l-0.8 3.8h0.4l0.2-1.1h1l0.2 1.1h0.4l-0.8-3.8H68.2z M68.1 37.9l0.4-2.1h0l0.4 2.1H68.1z"/><polygon points="70.3,35.9 71.5,35.9 70.2,39.1 70.2,39.4 72,39.4 72,39.1 70.6,39.1 72,35.9 72,35.6 70.3,35.6"/><rect x="72.9" y="35.6" width="0.4" height="3.8"/><polygon points="75.9,38.4 75.9,38.4 74.9,35.6 74.3,35.6 74.3,39.4 74.7,39.4 74.7,36.1 74.7,36.1 75.9,39.4 76.3,39.4 76.3,35.6 75.9,35.6"/><polygon points="77.7,37.6 78.7,37.6 78.7,37.3 77.7,37.3 77.7,35.9 79.1,35.9 79.1,35.6 77.3,35.6 77.3,39.4 79.1,39.4 79.1,39.1 77.7,39.1"/></g></svg>