<svg class="svg-fill" xmlns="http://www.w3.org/2000/svg" xmlns:xlink="http://www.w3.org/1999/xlink" version="1.1" x="0px" y="0px" width="144px" height="40px" viewBox="0 0 144 40" enable-background="new 0 0 144 40" xml:space="preserve"><path d="M137.9 14.7c-2.7 0-4.5 0.7-5.8 2h-0.1V15h-6.5v3.6c-1.3-2.3-4.2-4-8.9-4c-5.1 0-8.1 1.9-9.2 4.5V15h-6.8 v13.4h6.8v-4.2c1.1 2.6 4.1 4.5 9.2 4.5c4.7 0 7.6-1.7 8.9-4v3.7h6.8v-7.1c0-2.1 1.5-2.6 2.7-2.6c2 0 2.2 1.1 2.2 2.6v7h6.8v-9.2 C144 16.1 141.1 14.7 137.9 14.7z M116.7 25c-2.6 0-2.9-1.9-2.9-3.3c0-1.4 0.3-3.3 2.9-3.3c2.6 0 2.9 1.9 2.9 3.3 C119.6 23.1 119.3 25 116.7 25z"/><path d="M15.9 23.3l2.9 2.3c-0.5 0.1-1 0.1-1.4 0.1c-2.7 0-6.8-1.3-6.8-7.1 c0-5.8 4.1-7.1 6.8-7.1c2.7 0 6.8 1.3 6.8 7.1c0 1.4-0.2 2.5-0.7 3.5l-2.9-2.2L15.9 23.3L15.9 23.3z M35.5 31.4l-4.8-3.7 c2.5-2.4 4-5.5 4-9.1C34.7 10.7 27.7 5 17.3 5C6.9 5 0 10.7 0 18.6c0 7.9 6.9 13.6 17.3 13.6c3.2 0 6.2-0.5 8.1-1.4l5.3 4.2 L35.5 31.4L35.5 31.4z"/><polygon points="107.5,10 100.8,10 100.8,13.6 107.5,13.6 107.5,10"/><path d="M100.3 18.9V15h-3.6v-5h-6.8v5h-3v1.2c-1.7-1.2-4.6-1.6-7.1-1.6c-3.5 0-8.2 0.9-8.4 4.1 c-1.3-2.7-4.3-4.1-9.2-4.1c-4 0-7.1 1.6-8.5 4V15H47v7.1c0 2.1-1.5 2.6-2.7 2.6c-2 0-2.2-1.1-2.2-2.6v-7h-6.8v9.2 c0 3.1 2.9 4.5 6.1 4.5c2.7 0 4.5-0.7 5.8-2h0.1v1.7h6.5v-3.5c1.5 2.5 4.9 3.9 9.1 3.9c3.4 0 6.7-1.3 8.5-3.5c1 2.5 5 3.5 8.6 3.5 c4.3 0 9-1 9-4.7c0-2.2-2-3.2-4.2-3.7c-2.2-0.6-4.8-0.7-5.9-1c-0.4-0.1-0.8-0.3-0.8-0.7c0-0.9 1.1-1 2-1c0.5 0 1.1 0.1 1.5 0.4 c0.4 0.2 0.7 0.6 0.8 1h7.6v5.6c0 3.7 3.2 4 6 4c1.4 0 3-0.2 4.3-0.2v-3.9c-0.5 0.1-1 0.1-1.5 0.1c-1.7 0-2.1-0.5-2.1-1.8v-3.9 L100.3 18.9z M62.9 17.9c1.7 0 3 1 3 2.2h-6.4C59.7 18.7 60.9 17.9 62.9 17.9z M78.7 23.1c3.1 0.4 3.7 0.6 3.7 1.4 c0 0.8-1.4 1-2.3 1c-0.8 0-1.5-0.2-1.8-0.4c-0.5-0.3-0.8-0.7-0.8-1.2H66.1c-0.4 0.8-1.5 1.5-3.2 1.4c-2.1 0-3.3-1.1-3.4-2.6h13 c0-0.7-0.1-1.4-0.2-2C73.1 21.9 75.2 22.7 78.7 23.1z"/></svg>