<?xml version="1.0" encoding="utf-8"?>
<!-- Generator: Adobe Illustrator 16.0.5, SVG Export Plug-In . SVG Version: 6.00 Build 0)  -->
<!DOCTYPE svg PUBLIC "-//W3C//DTD SVG 1.1//EN" "http://www.w3.org/Graphics/SVG/1.1/DTD/svg11.dtd">
<svg version="1.1" id="Layer_1" xmlns="http://www.w3.org/2000/svg" xmlns:xlink="http://www.w3.org/1999/xlink" x="0px" y="0px"
	 width="96px" height="40px" viewBox="0 0 96 40" enable-background="new 0 0 96 40" xml:space="preserve">
<g>
	<g>
		<g>
			<defs>
				<rect id="SVGID_1_" x="2.812" y="2.934" width="90.354" height="36.132"/>
			</defs>
			<clipPath id="SVGID_2_">
				<use xlink:href="#SVGID_1_"  overflow="visible"/>
			</clipPath>
			<polygon clip-path="url(#SVGID_2_)" fill="#231F20" points="21.218,2.934 22.826,4.542 23.663,5.378 23.663,4.504 23.263,4.105 
				22.091,2.934 			"/>
		</g>
		<g>
			<defs>
				<rect id="SVGID_3_" x="2.812" y="2.934" width="90.354" height="36.132"/>
			</defs>
			<clipPath id="SVGID_4_">
				<use xlink:href="#SVGID_3_"  overflow="visible"/>
			</clipPath>
			<polygon clip-path="url(#SVGID_4_)" fill="#231F20" points="21.873,9.666 18.103,5.895 18.103,6.768 21.437,10.102 
				22.608,11.274 23.481,11.274 			"/>
		</g>
		<g>
			<defs>
				<rect id="SVGID_5_" x="2.812" y="2.934" width="90.354" height="36.132"/>
			</defs>
			<clipPath id="SVGID_6_">
				<use xlink:href="#SVGID_5_"  overflow="visible"/>
			</clipPath>
			<polygon clip-path="url(#SVGID_6_)" fill="#231F20" points="22.608,2.934 23.663,3.988 23.663,3.114 23.482,2.934 			"/>
		</g>
		<g>
			<defs>
				<rect id="SVGID_7_" x="2.812" y="2.934" width="90.354" height="36.132"/>
			</defs>
			<clipPath id="SVGID_8_">
				<use xlink:href="#SVGID_7_"  overflow="visible"/>
			</clipPath>
			<polygon clip-path="url(#SVGID_8_)" fill="#231F20" points="23.263,9.666 18.103,4.504 18.103,5.378 22.826,10.102 
				23.663,10.938 23.663,10.065 			"/>
		</g>
		<g>
			<defs>
				<rect id="SVGID_9_" x="2.812" y="2.934" width="90.354" height="36.132"/>
			</defs>
			<clipPath id="SVGID_10_">
				<use xlink:href="#SVGID_9_"  overflow="visible"/>
			</clipPath>
			<polygon clip-path="url(#SVGID_10_)" fill="#231F20" points="18.103,10.065 18.103,10.938 18.438,11.274 19.312,11.274 			"/>
		</g>
		<g>
			<defs>
				<rect id="SVGID_11_" x="2.812" y="2.934" width="90.354" height="36.132"/>
			</defs>
			<clipPath id="SVGID_12_">
				<use xlink:href="#SVGID_11_"  overflow="visible"/>
			</clipPath>
			<polygon clip-path="url(#SVGID_12_)" fill="#231F20" points="19.093,9.666 18.103,8.675 18.103,9.548 18.656,10.102 
				19.828,11.274 20.702,11.274 			"/>
		</g>
		<g>
			<defs>
				<rect id="SVGID_13_" x="2.812" y="2.934" width="90.354" height="36.132"/>
			</defs>
			<clipPath id="SVGID_14_">
				<use xlink:href="#SVGID_13_"  overflow="visible"/>
			</clipPath>
			<polygon clip-path="url(#SVGID_14_)" fill="#231F20" points="20.483,9.666 18.103,7.285 18.103,8.158 20.046,10.102 
				21.218,11.274 22.092,11.274 			"/>
		</g>
		<g>
			<defs>
				<rect id="SVGID_15_" x="2.812" y="2.934" width="90.354" height="36.132"/>
			</defs>
			<clipPath id="SVGID_16_">
				<use xlink:href="#SVGID_15_"  overflow="visible"/>
			</clipPath>
			<polygon clip-path="url(#SVGID_16_)" fill="#231F20" points="39.334,5.759 42.069,8.494 42.942,8.494 39.564,5.116 			"/>
		</g>
		<g>
			<defs>
				<rect id="SVGID_17_" x="2.812" y="2.934" width="90.354" height="36.132"/>
			</defs>
			<clipPath id="SVGID_18_">
				<use xlink:href="#SVGID_17_"  overflow="visible"/>
			</clipPath>
			<polygon clip-path="url(#SVGID_18_)" fill="#231F20" points="39.289,8.494 40.163,8.494 38.833,7.164 38.603,7.808 			"/>
		</g>
		<g>
			<defs>
				<rect id="SVGID_19_" x="2.812" y="2.934" width="90.354" height="36.132"/>
			</defs>
			<clipPath id="SVGID_20_">
				<use xlink:href="#SVGID_19_"  overflow="visible"/>
			</clipPath>
			<polygon clip-path="url(#SVGID_20_)" fill="#231F20" points="38.467,8.188 38.357,8.494 38.772,8.494 			"/>
		</g>
		<g>
			<defs>
				<rect id="SVGID_21_" x="2.812" y="2.934" width="90.354" height="36.132"/>
			</defs>
			<clipPath id="SVGID_22_">
				<use xlink:href="#SVGID_21_"  overflow="visible"/>
			</clipPath>
			<polygon clip-path="url(#SVGID_22_)" fill="#231F20" points="19.828,2.934 21.437,4.542 23.663,6.768 23.663,5.895 21.873,4.105 
				20.701,2.934 			"/>
		</g>
		<g>
			<defs>
				<rect id="SVGID_23_" x="2.812" y="2.934" width="90.354" height="36.132"/>
			</defs>
			<clipPath id="SVGID_24_">
				<use xlink:href="#SVGID_23_"  overflow="visible"/>
			</clipPath>
			<polygon clip-path="url(#SVGID_24_)" fill="#231F20" points="58.414,25.355 55.453,22.395 54.579,22.395 58.414,26.229 			"/>
		</g>
		<g>
			<defs>
				<rect id="SVGID_25_" x="2.812" y="2.934" width="90.354" height="36.132"/>
			</defs>
			<clipPath id="SVGID_26_">
				<use xlink:href="#SVGID_25_"  overflow="visible"/>
			</clipPath>
			<polygon clip-path="url(#SVGID_26_)" fill="#231F20" points="18.438,2.934 20.046,4.542 23.663,8.158 23.663,7.285 20.483,4.105 
				19.312,2.934 			"/>
		</g>
		<g>
			<defs>
				<rect id="SVGID_27_" x="2.812" y="2.934" width="90.354" height="36.132"/>
			</defs>
			<clipPath id="SVGID_28_">
				<use xlink:href="#SVGID_27_"  overflow="visible"/>
			</clipPath>
			<g clip-path="url(#SVGID_28_)">
				<g>
					<defs>
						<rect id="SVGID_29_" x="2.812" y="2.934" width="90.354" height="36.132"/>
					</defs>
					<defs>
						<rect id="SVGID_30_" x="2.812" y="2.934" width="90.354" height="36.132"/>
					</defs>
					<defs>
						<rect id="SVGID_31_" x="2.812" y="2.934" width="90.354" height="36.132"/>
					</defs>
					<defs>
						<rect id="SVGID_32_" x="2.812" y="2.934" width="90.354" height="36.132"/>
					</defs>
					<defs>
						<rect id="SVGID_33_" x="2.812" y="2.934" width="90.354" height="36.132"/>
					</defs>
					<defs>
						<rect id="SVGID_34_" x="2.812" y="2.934" width="90.354" height="36.132"/>
					</defs>
					<defs>
						<rect id="SVGID_35_" x="2.812" y="2.934" width="90.354" height="36.132"/>
					</defs>
					<defs>
						<rect id="SVGID_36_" x="2.812" y="2.934" width="90.354" height="36.132"/>
					</defs>
					<defs>
						<rect id="SVGID_37_" x="2.812" y="2.934" width="90.354" height="36.132"/>
					</defs>
					<defs>
						<rect id="SVGID_38_" x="2.812" y="2.934" width="90.354" height="36.132"/>
					</defs>
					<defs>
						<rect id="SVGID_39_" x="2.812" y="2.934" width="90.354" height="36.132"/>
					</defs>
					<defs>
						<rect id="SVGID_40_" x="2.812" y="2.934" width="90.354" height="36.132"/>
					</defs>
					<defs>
						<rect id="SVGID_41_" x="2.812" y="2.934" width="90.354" height="36.132"/>
					</defs>
					<defs>
						<rect id="SVGID_42_" x="2.812" y="2.934" width="90.354" height="36.132"/>
					</defs>
					<defs>
						<rect id="SVGID_43_" x="2.812" y="2.934" width="90.354" height="36.132"/>
					</defs>
					<defs>
						<rect id="SVGID_44_" x="2.812" y="2.934" width="90.354" height="36.132"/>
					</defs>
					<defs>
						<rect id="SVGID_45_" x="2.812" y="2.934" width="90.354" height="36.132"/>
					</defs>
					<defs>
						<rect id="SVGID_46_" x="2.812" y="2.934" width="90.354" height="36.132"/>
					</defs>
					<defs>
						<rect id="SVGID_47_" x="2.812" y="2.934" width="90.354" height="36.132"/>
					</defs>
					<defs>
						<rect id="SVGID_48_" x="2.812" y="2.934" width="90.354" height="36.132"/>
					</defs>
					<defs>
						<rect id="SVGID_49_" x="2.812" y="2.934" width="90.354" height="36.132"/>
					</defs>
					<defs>
						<rect id="SVGID_50_" x="2.812" y="2.934" width="90.354" height="36.132"/>
					</defs>
					<defs>
						<rect id="SVGID_51_" x="2.812" y="2.934" width="90.354" height="36.132"/>
					</defs>
					<defs>
						<rect id="SVGID_52_" x="2.812" y="2.934" width="90.354" height="36.132"/>
					</defs>
					<defs>
						<rect id="SVGID_53_" x="2.812" y="2.934" width="90.354" height="36.132"/>
					</defs>
					<defs>
						<rect id="SVGID_54_" x="2.812" y="2.934" width="90.354" height="36.132"/>
					</defs>
					<defs>
						<rect id="SVGID_55_" x="2.812" y="2.934" width="90.354" height="36.132"/>
					</defs>
					<defs>
						<rect id="SVGID_56_" x="2.812" y="2.934" width="90.354" height="36.132"/>
					</defs>
					<defs>
						<rect id="SVGID_57_" x="2.812" y="2.934" width="90.354" height="36.132"/>
					</defs>
					<defs>
						<rect id="SVGID_58_" x="2.812" y="2.934" width="90.354" height="36.132"/>
					</defs>
					<defs>
						<rect id="SVGID_59_" x="2.812" y="2.934" width="90.354" height="36.132"/>
					</defs>
					<defs>
						<rect id="SVGID_60_" x="2.812" y="2.934" width="90.354" height="36.132"/>
					</defs>
					<defs>
						<rect id="SVGID_61_" x="2.812" y="2.934" width="90.354" height="36.132"/>
					</defs>
					<defs>
						<rect id="SVGID_62_" x="2.812" y="2.934" width="90.354" height="36.132"/>
					</defs>
					<defs>
						<rect id="SVGID_63_" x="2.812" y="2.934" width="90.354" height="36.132"/>
					</defs>
					<defs>
						<rect id="SVGID_64_" x="2.812" y="2.934" width="90.354" height="36.132"/>
					</defs>
					<defs>
						<rect id="SVGID_65_" x="2.812" y="2.934" width="90.354" height="36.132"/>
					</defs>
					<defs>
						<rect id="SVGID_66_" x="2.812" y="2.934" width="90.354" height="36.132"/>
					</defs>
					<defs>
						<rect id="SVGID_67_" x="2.812" y="2.934" width="90.354" height="36.132"/>
					</defs>
					<defs>
						<rect id="SVGID_68_" x="2.812" y="2.934" width="90.354" height="36.132"/>
					</defs>
					<defs>
						<rect id="SVGID_69_" x="2.812" y="2.934" width="90.354" height="36.132"/>
					</defs>
					<defs>
						<rect id="SVGID_70_" x="2.812" y="2.934" width="90.354" height="36.132"/>
					</defs>
					<defs>
						<rect id="SVGID_71_" x="2.812" y="2.934" width="90.354" height="36.132"/>
					</defs>
					<defs>
						<rect id="SVGID_72_" x="2.812" y="2.934" width="90.354" height="36.132"/>
					</defs>
					<defs>
						<rect id="SVGID_73_" x="2.812" y="2.934" width="90.354" height="36.132"/>
					</defs>
					<defs>
						<rect id="SVGID_74_" x="2.812" y="2.934" width="90.354" height="36.132"/>
					</defs>
					<defs>
						<rect id="SVGID_75_" x="2.812" y="2.934" width="90.354" height="36.132"/>
					</defs>
					<defs>
						<rect id="SVGID_76_" x="2.812" y="2.934" width="90.354" height="36.132"/>
					</defs>
					<defs>
						<rect id="SVGID_77_" x="2.812" y="2.934" width="90.354" height="36.132"/>
					</defs>
					<clipPath id="SVGID_78_">
						<use xlink:href="#SVGID_29_"  overflow="visible"/>
					</clipPath>
					<clipPath id="SVGID_79_" clip-path="url(#SVGID_78_)">
						<use xlink:href="#SVGID_30_"  overflow="visible"/>
					</clipPath>
					<clipPath id="SVGID_80_" clip-path="url(#SVGID_79_)">
						<use xlink:href="#SVGID_31_"  overflow="visible"/>
					</clipPath>
					<clipPath id="SVGID_81_" clip-path="url(#SVGID_80_)">
						<use xlink:href="#SVGID_32_"  overflow="visible"/>
					</clipPath>
					<clipPath id="SVGID_82_" clip-path="url(#SVGID_81_)">
						<use xlink:href="#SVGID_33_"  overflow="visible"/>
					</clipPath>
					<clipPath id="SVGID_83_" clip-path="url(#SVGID_82_)">
						<use xlink:href="#SVGID_34_"  overflow="visible"/>
					</clipPath>
					<clipPath id="SVGID_84_" clip-path="url(#SVGID_83_)">
						<use xlink:href="#SVGID_35_"  overflow="visible"/>
					</clipPath>
					<clipPath id="SVGID_85_" clip-path="url(#SVGID_84_)">
						<use xlink:href="#SVGID_36_"  overflow="visible"/>
					</clipPath>
					<clipPath id="SVGID_86_" clip-path="url(#SVGID_85_)">
						<use xlink:href="#SVGID_37_"  overflow="visible"/>
					</clipPath>
					<clipPath id="SVGID_87_" clip-path="url(#SVGID_86_)">
						<use xlink:href="#SVGID_38_"  overflow="visible"/>
					</clipPath>
					<clipPath id="SVGID_88_" clip-path="url(#SVGID_87_)">
						<use xlink:href="#SVGID_39_"  overflow="visible"/>
					</clipPath>
					<clipPath id="SVGID_89_" clip-path="url(#SVGID_88_)">
						<use xlink:href="#SVGID_40_"  overflow="visible"/>
					</clipPath>
					<clipPath id="SVGID_90_" clip-path="url(#SVGID_89_)">
						<use xlink:href="#SVGID_41_"  overflow="visible"/>
					</clipPath>
					<clipPath id="SVGID_91_" clip-path="url(#SVGID_90_)">
						<use xlink:href="#SVGID_42_"  overflow="visible"/>
					</clipPath>
					<clipPath id="SVGID_92_" clip-path="url(#SVGID_91_)">
						<use xlink:href="#SVGID_43_"  overflow="visible"/>
					</clipPath>
					<clipPath id="SVGID_93_" clip-path="url(#SVGID_92_)">
						<use xlink:href="#SVGID_44_"  overflow="visible"/>
					</clipPath>
					<clipPath id="SVGID_94_" clip-path="url(#SVGID_93_)">
						<use xlink:href="#SVGID_45_"  overflow="visible"/>
					</clipPath>
					<clipPath id="SVGID_95_" clip-path="url(#SVGID_94_)">
						<use xlink:href="#SVGID_46_"  overflow="visible"/>
					</clipPath>
					<clipPath id="SVGID_96_" clip-path="url(#SVGID_95_)">
						<use xlink:href="#SVGID_47_"  overflow="visible"/>
					</clipPath>
					<clipPath id="SVGID_97_" clip-path="url(#SVGID_96_)">
						<use xlink:href="#SVGID_48_"  overflow="visible"/>
					</clipPath>
					<clipPath id="SVGID_98_" clip-path="url(#SVGID_97_)">
						<use xlink:href="#SVGID_49_"  overflow="visible"/>
					</clipPath>
					<clipPath id="SVGID_99_" clip-path="url(#SVGID_98_)">
						<use xlink:href="#SVGID_50_"  overflow="visible"/>
					</clipPath>
					<clipPath id="SVGID_100_" clip-path="url(#SVGID_99_)">
						<use xlink:href="#SVGID_51_"  overflow="visible"/>
					</clipPath>
					<clipPath id="SVGID_101_" clip-path="url(#SVGID_100_)">
						<use xlink:href="#SVGID_52_"  overflow="visible"/>
					</clipPath>
					<clipPath id="SVGID_102_" clip-path="url(#SVGID_101_)">
						<use xlink:href="#SVGID_53_"  overflow="visible"/>
					</clipPath>
					<clipPath id="SVGID_103_" clip-path="url(#SVGID_102_)">
						<use xlink:href="#SVGID_54_"  overflow="visible"/>
					</clipPath>
					<clipPath id="SVGID_104_" clip-path="url(#SVGID_103_)">
						<use xlink:href="#SVGID_55_"  overflow="visible"/>
					</clipPath>
					<clipPath id="SVGID_105_" clip-path="url(#SVGID_104_)">
						<use xlink:href="#SVGID_56_"  overflow="visible"/>
					</clipPath>
					<clipPath id="SVGID_106_" clip-path="url(#SVGID_105_)">
						<use xlink:href="#SVGID_57_"  overflow="visible"/>
					</clipPath>
					<clipPath id="SVGID_107_" clip-path="url(#SVGID_106_)">
						<use xlink:href="#SVGID_58_"  overflow="visible"/>
					</clipPath>
					<clipPath id="SVGID_108_" clip-path="url(#SVGID_107_)">
						<use xlink:href="#SVGID_59_"  overflow="visible"/>
					</clipPath>
					<clipPath id="SVGID_109_" clip-path="url(#SVGID_108_)">
						<use xlink:href="#SVGID_60_"  overflow="visible"/>
					</clipPath>
					<clipPath id="SVGID_110_" clip-path="url(#SVGID_109_)">
						<use xlink:href="#SVGID_61_"  overflow="visible"/>
					</clipPath>
					<clipPath id="SVGID_111_" clip-path="url(#SVGID_110_)">
						<use xlink:href="#SVGID_62_"  overflow="visible"/>
					</clipPath>
					<clipPath id="SVGID_112_" clip-path="url(#SVGID_111_)">
						<use xlink:href="#SVGID_63_"  overflow="visible"/>
					</clipPath>
					<clipPath id="SVGID_113_" clip-path="url(#SVGID_112_)">
						<use xlink:href="#SVGID_64_"  overflow="visible"/>
					</clipPath>
					<clipPath id="SVGID_114_" clip-path="url(#SVGID_113_)">
						<use xlink:href="#SVGID_65_"  overflow="visible"/>
					</clipPath>
					<clipPath id="SVGID_115_" clip-path="url(#SVGID_114_)">
						<use xlink:href="#SVGID_66_"  overflow="visible"/>
					</clipPath>
					<clipPath id="SVGID_116_" clip-path="url(#SVGID_115_)">
						<use xlink:href="#SVGID_67_"  overflow="visible"/>
					</clipPath>
					<clipPath id="SVGID_117_" clip-path="url(#SVGID_116_)">
						<use xlink:href="#SVGID_68_"  overflow="visible"/>
					</clipPath>
					<clipPath id="SVGID_118_" clip-path="url(#SVGID_117_)">
						<use xlink:href="#SVGID_69_"  overflow="visible"/>
					</clipPath>
					<clipPath id="SVGID_119_" clip-path="url(#SVGID_118_)">
						<use xlink:href="#SVGID_70_"  overflow="visible"/>
					</clipPath>
					<clipPath id="SVGID_120_" clip-path="url(#SVGID_119_)">
						<use xlink:href="#SVGID_71_"  overflow="visible"/>
					</clipPath>
					<clipPath id="SVGID_121_" clip-path="url(#SVGID_120_)">
						<use xlink:href="#SVGID_72_"  overflow="visible"/>
					</clipPath>
					<clipPath id="SVGID_122_" clip-path="url(#SVGID_121_)">
						<use xlink:href="#SVGID_73_"  overflow="visible"/>
					</clipPath>
					<clipPath id="SVGID_123_" clip-path="url(#SVGID_122_)">
						<use xlink:href="#SVGID_74_"  overflow="visible"/>
					</clipPath>
					<clipPath id="SVGID_124_" clip-path="url(#SVGID_123_)">
						<use xlink:href="#SVGID_75_"  overflow="visible"/>
					</clipPath>
					<clipPath id="SVGID_125_" clip-path="url(#SVGID_124_)">
						<use xlink:href="#SVGID_76_"  overflow="visible"/>
					</clipPath>
					<clipPath id="SVGID_126_" clip-path="url(#SVGID_125_)">
						<use xlink:href="#SVGID_77_"  overflow="visible"/>
					</clipPath>
					<path clip-path="url(#SVGID_126_)" fill="#231F20" d="M92.768,9.666l-5.562-5.561l-1.033-1.034
						C85.758,3,85.413,2.966,85.177,2.949l1.593,1.593l5.562,5.56l0.83,0.831c-0.009-0.327-0.032-0.64-0.065-0.94L92.768,9.666z"/>
					<polygon clip-path="url(#SVGID_126_)" fill="#231F20" points="18.656,4.542 23.663,9.548 23.663,8.675 19.093,4.105 
						18.103,3.114 18.103,3.988 					"/>
					<polygon clip-path="url(#SVGID_126_)" fill="#231F20" points="40.679,8.494 41.553,8.494 39.198,6.14 38.968,6.783 					"/>
					<path clip-path="url(#SVGID_126_)" fill="#231F20" d="M88.159,4.542l4.847,4.847c-0.072-0.413-0.17-0.801-0.289-1.163
						l-4.119-4.121l-0.531-0.53c-0.438-0.162-0.858-0.282-1.246-0.373L88.159,4.542z"/>
					<path clip-path="url(#SVGID_126_)" fill="#231F20" d="M89.55,4.542l2.829,2.829c-0.801-1.709-2.105-2.76-3.406-3.406
						L89.55,4.542z"/>
					<polygon clip-path="url(#SVGID_126_)" fill="#231F20" points="93.166,13.719 93.166,12.845 89.986,9.666 84.825,4.504 
						84.825,5.378 89.55,10.102 					"/>
					<path clip-path="url(#SVGID_126_)" fill="#231F20" d="M85.816,37.467l-0.981-0.98c0.032,0.477,0.185,0.919,0.426,1.3
						l0.118,0.118l0.736,0.736c0.381,0.241,0.822,0.394,1.3,0.426L85.816,37.467z"/>
					<polygon clip-path="url(#SVGID_126_)" fill="#231F20" points="88.159,10.102 92.111,14.054 92.984,14.054 88.598,9.666 
						84.825,5.895 84.825,6.768 					"/>
					<path clip-path="url(#SVGID_126_)" fill="#231F20" d="M87.206,37.467l-2.187-2.188c-0.088,0.222-0.147,0.455-0.176,0.699
						l1.926,1.924l1.151,1.152c0.244-0.027,0.479-0.088,0.699-0.175L87.206,37.467z"/>
					<polygon clip-path="url(#SVGID_126_)" fill="#231F20" points="85.816,4.105 84.825,3.114 84.825,3.988 85.379,4.542 
						90.939,10.102 93.166,12.329 93.166,11.455 91.376,9.666 					"/>
					<path clip-path="url(#SVGID_126_)" fill="#231F20" d="M88.598,37.467l-3.043-3.043c-0.142,0.154-0.266,0.323-0.369,0.506
						l2.975,2.975l0.812,0.812c0.182-0.104,0.352-0.228,0.506-0.368L88.598,37.467z"/>
					<path clip-path="url(#SVGID_126_)" fill="#231F20" d="M87.968,33.541l2.392,2.393C90.197,34.688,89.213,33.703,87.968,33.541"
						/>
					<polygon clip-path="url(#SVGID_126_)" fill="#231F20" points="89.331,14.054 90.205,14.054 87.605,11.455 87.605,12.329 					
						"/>
					<path clip-path="url(#SVGID_126_)" fill="#231F20" d="M90.232,37.197c0.08-0.231,0.129-0.477,0.145-0.73l-2.943-2.943
						c-0.254,0.017-0.498,0.064-0.729,0.146L90.232,37.197z"/>
					<path clip-path="url(#SVGID_126_)" fill="#231F20" d="M89.986,37.467L86.34,33.82c-0.188,0.098-0.365,0.214-0.525,0.349
						l3.734,3.733l0.182,0.183c0.136-0.16,0.252-0.337,0.349-0.524L89.986,37.467z"/>
					<polygon clip-path="url(#SVGID_126_)" fill="#231F20" points="88.814,14.054 87.605,12.845 87.605,13.719 87.941,14.054 					
						"/>
					<path clip-path="url(#SVGID_126_)" fill="#231F20" d="M85.18,8.512c0.596,0.055,1.045,0.249,1.385,0.511l-1.738-1.738v0.874
						L85.18,8.512z"/>
					<path clip-path="url(#SVGID_126_)" fill="#231F20" d="M87.206,9.666l-0.233-0.234c0.396,0.505,0.545,1.1,0.601,1.474
						l3.147,3.148h0.875L87.206,9.666z"/>
					<polygon clip-path="url(#SVGID_126_)" fill="#231F20" points="5.192,26.346 2.812,23.966 2.812,24.839 4.756,26.783 
						5.927,27.955 6.801,27.955 					"/>
					<polygon clip-path="url(#SVGID_126_)" fill="#231F20" points="3.802,26.346 2.812,25.355 2.812,26.229 3.366,26.783 
						4.537,27.955 5.411,27.955 					"/>
					<polygon clip-path="url(#SVGID_126_)" fill="#231F20" points="6.583,26.346 2.812,22.575 2.812,23.449 6.146,26.783 
						7.317,27.955 8.191,27.955 					"/>
					<polygon clip-path="url(#SVGID_126_)" fill="#231F20" points="56.625,26.346 52.673,22.395 51.8,22.395 56.188,26.783 
						57.359,27.955 58.232,27.955 					"/>
					<polygon clip-path="url(#SVGID_126_)" fill="#231F20" points="7.973,26.346 4.021,22.395 3.147,22.395 7.536,26.783 
						8.708,27.955 9.581,27.955 					"/>
					<polygon clip-path="url(#SVGID_126_)" fill="#231F20" points="58.016,26.346 54.062,22.395 53.189,22.395 57.578,26.783 
						58.414,27.619 58.414,26.745 					"/>
					<polygon clip-path="url(#SVGID_126_)" fill="#231F20" points="2.812,26.745 2.812,27.619 3.147,27.955 4.021,27.955 					"/>
					<polygon clip-path="url(#SVGID_126_)" fill="#231F20" points="13.932,26.229 13.932,25.355 10.971,22.395 10.098,22.395 					
						"/>
					<polygon clip-path="url(#SVGID_126_)" fill="#231F20" points="9.363,26.346 5.411,22.395 4.537,22.395 8.926,26.783 
						10.098,27.955 10.971,27.955 					"/>
					<polygon clip-path="url(#SVGID_126_)" fill="#231F20" points="13.932,24.839 13.932,23.966 12.361,22.395 11.487,22.395 					
						"/>
					<polygon clip-path="url(#SVGID_126_)" fill="#231F20" points="55.234,26.346 51.283,22.395 50.409,22.395 54.798,26.783 
						55.971,27.955 56.843,27.955 					"/>
					<polygon clip-path="url(#SVGID_126_)" fill="#231F20" points="13.932,23.449 13.932,22.575 13.751,22.395 12.877,22.395 					
						"/>
					<polygon clip-path="url(#SVGID_126_)" fill="#231F20" points="13.533,26.346 9.581,22.395 8.708,22.395 13.096,26.783 
						13.932,27.619 13.932,26.745 					"/>
					<polygon clip-path="url(#SVGID_126_)" fill="#231F20" points="10.753,26.346 6.801,22.395 5.927,22.395 10.316,26.783 
						11.487,27.955 12.361,27.955 					"/>
					<polygon clip-path="url(#SVGID_126_)" fill="#231F20" points="12.143,26.346 8.191,22.395 7.317,22.395 11.706,26.783 
						12.877,27.955 13.751,27.955 					"/>
					<polygon clip-path="url(#SVGID_126_)" fill="#231F20" points="49.675,26.346 47.294,23.966 47.294,24.839 49.236,26.783 
						50.409,27.955 51.283,27.955 					"/>
					<polygon clip-path="url(#SVGID_126_)" fill="#231F20" points="45.067,4.542 49.02,8.494 49.893,8.494 45.504,4.105 
						44.333,2.934 43.459,2.934 					"/>
					<polygon clip-path="url(#SVGID_126_)" fill="#231F20" points="46.458,4.542 50.409,8.494 50.67,8.494 50.329,7.54 
						46.895,4.105 45.723,2.934 44.849,2.934 					"/>
					<polygon clip-path="url(#SVGID_126_)" fill="#231F20" points="42.287,4.542 46.239,8.494 47.113,8.494 42.724,4.105 
						41.553,2.934 40.679,2.934 					"/>
					<polygon clip-path="url(#SVGID_126_)" fill="#231F20" points="53.846,26.346 49.893,22.395 49.02,22.395 53.408,26.783 
						54.579,27.955 55.453,27.955 					"/>
					<polygon clip-path="url(#SVGID_126_)" fill="#231F20" points="58.232,22.395 57.359,22.395 58.414,23.449 58.414,22.575 					
						"/>
					<polygon clip-path="url(#SVGID_126_)" fill="#231F20" points="49.236,4.542 49.27,4.574 48.784,3.215 48.503,2.934 
						47.629,2.934 					"/>
					<polygon clip-path="url(#SVGID_126_)" fill="#231F20" points="47.848,4.542 50.042,6.736 49.557,5.377 48.284,4.105 
						47.113,2.934 46.239,2.934 					"/>
					<polygon clip-path="url(#SVGID_126_)" fill="#231F20" points="43.677,4.542 47.629,8.494 48.503,8.494 44.114,4.105 
						42.943,2.934 42.069,2.934 					"/>
					<polygon clip-path="url(#SVGID_126_)" fill="#231F20" points="51.064,26.346 47.294,22.575 47.294,23.449 50.628,26.783 
						51.8,27.955 52.673,27.955 					"/>
					<polygon clip-path="url(#SVGID_126_)" fill="#231F20" points="56.843,22.395 55.971,22.395 58.414,24.839 58.414,23.966 					
						"/>
					<polygon clip-path="url(#SVGID_126_)" fill="#231F20" points="52.455,26.346 48.503,22.395 47.629,22.395 52.018,26.783 
						53.189,27.955 54.062,27.955 					"/>
					<polygon clip-path="url(#SVGID_126_)" fill="#231F20" points="40.897,4.542 44.849,8.494 45.723,8.494 41.334,4.105 
						40.296,3.067 40.066,3.71 					"/>
					<polygon clip-path="url(#SVGID_126_)" fill="#231F20" points="43.459,8.494 44.333,8.494 39.944,4.105 39.93,4.091 39.7,4.735 
											"/>
					<polygon clip-path="url(#SVGID_126_)" fill="#231F20" points="48.284,26.346 47.294,25.355 47.294,26.229 47.848,26.783 
						49.02,27.955 49.893,27.955 					"/>
					<polygon clip-path="url(#SVGID_126_)" fill="#231F20" points="47.294,26.745 47.294,27.619 47.629,27.955 48.503,27.955 					
						"/>
				</g>
				<g>
					<defs>
						<rect id="SVGID_127_" x="2.812" y="2.934" width="90.354" height="36.132"/>
					</defs>
					<clipPath id="SVGID_128_">
						<use xlink:href="#SVGID_127_"  overflow="visible"/>
					</clipPath>
					<g clip-path="url(#SVGID_128_)">
						<g>
							<defs>
								<rect id="SVGID_129_" x="2.812" y="2.934" width="90.354" height="36.132"/>
							</defs>
							<defs>
								<rect id="SVGID_130_" x="2.812" y="2.934" width="90.354" height="36.132"/>
							</defs>
							<defs>
								<rect id="SVGID_131_" x="2.812" y="2.934" width="90.354" height="36.132"/>
							</defs>
							<defs>
								<rect id="SVGID_132_" x="2.812" y="2.934" width="90.354" height="36.132"/>
							</defs>
							<defs>
								<rect id="SVGID_133_" x="2.812" y="2.934" width="90.354" height="36.132"/>
							</defs>
							<defs>
								<rect id="SVGID_134_" x="2.812" y="2.934" width="90.354" height="36.132"/>
							</defs>
							<defs>
								<rect id="SVGID_135_" x="2.812" y="2.934" width="90.354" height="36.132"/>
							</defs>
							<defs>
								<rect id="SVGID_136_" x="2.812" y="2.934" width="90.354" height="36.132"/>
							</defs>
							<clipPath id="SVGID_137_">
								<use xlink:href="#SVGID_129_"  overflow="visible"/>
							</clipPath>
							<clipPath id="SVGID_138_" clip-path="url(#SVGID_137_)">
								<use xlink:href="#SVGID_130_"  overflow="visible"/>
							</clipPath>
							<clipPath id="SVGID_139_" clip-path="url(#SVGID_138_)">
								<use xlink:href="#SVGID_131_"  overflow="visible"/>
							</clipPath>
							<clipPath id="SVGID_140_" clip-path="url(#SVGID_139_)">
								<use xlink:href="#SVGID_132_"  overflow="visible"/>
							</clipPath>
							<clipPath id="SVGID_141_" clip-path="url(#SVGID_140_)">
								<use xlink:href="#SVGID_133_"  overflow="visible"/>
							</clipPath>
							<clipPath id="SVGID_142_" clip-path="url(#SVGID_141_)">
								<use xlink:href="#SVGID_134_"  overflow="visible"/>
							</clipPath>
							<clipPath id="SVGID_143_" clip-path="url(#SVGID_142_)">
								<use xlink:href="#SVGID_135_"  overflow="visible"/>
							</clipPath>
							<clipPath id="SVGID_144_" clip-path="url(#SVGID_143_)">
								<use xlink:href="#SVGID_136_"  overflow="visible"/>
							</clipPath>
							<path clip-path="url(#SVGID_144_)" fill="#231F20" d="M26.262,25.175l0.172-0.173c-0.083-1.35-1.125-2.438-2.456-2.588
								l-0.239,0.238l-0.25-0.25c-0.614,0.037-1.175,0.272-1.618,0.646l0.041,0.041l-0.258,0.258l-0.044-0.043
								c-0.41,0.449-0.674,1.033-0.718,1.68l0.068-0.067l0.258,0.259l-0.258,0.258l-0.068-0.066c0.044,0.646,0.308,1.23,0.718,1.681
								l0.044-0.045l0.258,0.259l-0.041,0.04c0.442,0.373,1.003,0.608,1.618,0.646l0.25-0.249l0.239,0.238
								c1.33-0.15,2.373-1.238,2.456-2.588L26.262,25.175z M21.655,26.128l-0.258-0.259l0.258-0.258l0.258,0.258L21.655,26.128z
								 M21.655,24.736l-0.258-0.258l0.258-0.258l0.258,0.258L21.655,24.736z M22.35,26.822l-0.258-0.258l0.258-0.258l0.258,0.258
								L22.35,26.822z M22.35,25.434l-0.258-0.259l0.258-0.259l0.258,0.259L22.35,25.434z M22.35,24.043l-0.258-0.259l0.258-0.259
								l0.258,0.259L22.35,24.043z M23.045,27.518l-0.258-0.258l0.258-0.259l0.258,0.259L23.045,27.518z M23.045,26.128
								l-0.258-0.259l0.258-0.258l0.258,0.258L23.045,26.128z M23.045,24.736l-0.258-0.258l0.258-0.258l0.258,0.258L23.045,24.736z
								 M23.045,23.348l-0.258-0.258l0.258-0.259l0.258,0.259L23.045,23.348z M23.74,26.822l-0.258-0.258l0.258-0.258l0.258,0.258
								L23.74,26.822z M23.74,25.434l-0.258-0.259l0.258-0.259l0.258,0.259L23.74,25.434z M23.74,24.043l-0.258-0.259l0.258-0.259
								l0.258,0.259L23.74,24.043z M24.435,27.518l-0.258-0.258l0.258-0.259l0.258,0.259L24.435,27.518z M24.435,26.128
								l-0.258-0.259l0.258-0.258l0.258,0.258L24.435,26.128z M24.435,24.736l-0.258-0.258l0.258-0.258l0.258,0.258L24.435,24.736z
								 M24.435,23.348l-0.258-0.258l0.258-0.259l0.258,0.259L24.435,23.348z M25.13,26.822l-0.258-0.258l0.258-0.258l0.258,0.258
								L25.13,26.822z M25.13,25.434l-0.258-0.259l0.258-0.259l0.258,0.259L25.13,25.434z M25.13,24.043l-0.258-0.259l0.258-0.259
								l0.258,0.259L25.13,24.043z M25.825,26.128l-0.258-0.259l0.258-0.258l0.258,0.258L25.825,26.128z M25.825,24.736
								l-0.258-0.258l0.258-0.258l0.258,0.258L25.825,24.736z"/>
							<path clip-path="url(#SVGID_144_)" fill="#231F20" d="M9.839,8.235l0.258,0.258h0.874l0.181-0.181V7.285l-0.181-0.181
								l0.181-0.181V5.895l-0.181-0.181l0.181-0.181V4.504l-0.181-0.181l0.181-0.181V3.114l-0.181-0.181h-0.874L9.839,3.191
								L9.581,2.934H8.707L8.449,3.191L8.191,2.934H7.317L7.059,3.191L6.801,2.934H6.634l0,0H5.927L5.669,3.191L5.411,2.934H4.537
								L4.279,3.191L4.021,2.934H3.147L2.889,3.191L2.812,3.114v1.028l0.077-0.077l0.258,0.258L2.889,4.582L2.812,4.504v1.028
								l0.077-0.078l0.258,0.258l-0.258,0.26L2.812,5.895v1.028l0.077-0.078l0.258,0.258L2.889,7.362L2.812,7.285v1.028l0.077-0.077
								l0.258,0.258h0.874l0.258-0.258l0.258,0.258h0.874l0.258-0.258l0.258,0.258h0.874l0.258-0.258l0.258,0.258h0.874l0.258-0.258
								l0.258,0.258h0.874L9.839,8.235z M10.534,3.37l0.258,0.258l-0.258,0.258l-0.258-0.258L10.534,3.37z M10.534,4.76l0.258,0.258
								l-0.258,0.258l-0.258-0.258L10.534,4.76z M10.534,6.15l0.258,0.258l-0.258,0.258l-0.258-0.258L10.534,6.15z M10.534,7.541
								l0.258,0.258l-0.258,0.258l-0.258-0.258L10.534,7.541z M9.839,4.065l0.258,0.258L9.839,4.582L9.581,4.323L9.839,4.065z
								 M9.839,5.455l0.258,0.258L9.839,5.972L9.581,5.713L9.839,5.455z M9.839,6.845l0.258,0.258L9.839,7.362L9.581,7.104
								L9.839,6.845z M3.584,8.057L3.326,7.799l0.258-0.258l0.258,0.258L3.584,8.057z M3.584,6.667L3.326,6.409L3.584,6.15
								l0.258,0.258L3.584,6.667z M3.584,5.277L3.326,5.019L3.584,4.76l0.258,0.258L3.584,5.277z M3.584,3.887L3.326,3.628
								L3.584,3.37l0.258,0.258L3.584,3.887z M4.279,7.362L4.021,7.104l0.258-0.258l0.258,0.258L4.279,7.362z M4.279,5.972
								L4.021,5.713l0.258-0.258l0.258,0.258L4.279,5.972z M4.279,4.582L4.021,4.323l0.258-0.258l0.258,0.258L4.279,4.582z
								 M4.974,8.057L4.716,7.799l0.258-0.258l0.258,0.258L4.974,8.057z M4.974,6.667L4.716,6.409L4.974,6.15l0.258,0.258
								L4.974,6.667z M4.974,5.277L4.716,5.019L4.974,4.76l0.258,0.258L4.974,5.277z M4.974,3.887L4.716,3.628L4.974,3.37
								l0.258,0.258L4.974,3.887z M5.669,7.362L5.411,7.104l0.258-0.258l0.258,0.258L5.669,7.362z M5.669,5.972L5.411,5.713
								l0.258-0.258l0.258,0.258L5.669,5.972z M5.669,4.582L5.411,4.323l0.258-0.258l0.258,0.258L5.669,4.582z M6.364,8.057
								L6.106,7.799l0.258-0.258l0.258,0.258L6.364,8.057z M6.364,6.667L6.106,6.409L6.364,6.15l0.258,0.258L6.364,6.667z
								 M6.364,5.277L6.106,5.019L6.364,4.76l0.258,0.258L6.364,5.277z M6.364,3.887L6.106,3.628L6.364,3.37l0.258,0.258
								L6.364,3.887z M7.059,7.362L6.801,7.104l0.258-0.258l0.258,0.258L7.059,7.362z M7.059,5.972L6.801,5.713l0.258-0.258
								l0.258,0.258L7.059,5.972z M7.059,4.582L6.801,4.323l0.258-0.258l0.258,0.258L7.059,4.582z M7.754,8.057L7.496,7.799
								l0.258-0.258l0.258,0.258L7.754,8.057z M7.754,6.667L7.496,6.409L7.754,6.15l0.258,0.258L7.754,6.667z M7.754,5.277
								L7.496,5.019L7.754,4.76l0.258,0.258L7.754,5.277z M7.754,3.887L7.496,3.628L7.754,3.37l0.258,0.258L7.754,3.887z
								 M8.449,7.362L8.191,7.104l0.258-0.258l0.258,0.258L8.449,7.362z M8.449,5.972L8.191,5.713l0.258-0.258l0.258,0.258
								L8.449,5.972z M8.449,4.582L8.191,4.323l0.258-0.258l0.258,0.258L8.449,4.582z M9.144,8.057L8.886,7.799l0.258-0.258
								l0.258,0.258L9.144,8.057z M9.144,6.667L8.886,6.409L9.144,6.15l0.258,0.258L9.144,6.667z M9.144,5.277L8.886,5.019
								L9.144,4.76l0.258,0.258L9.144,5.277z M9.144,3.887L8.886,3.628L9.144,3.37l0.258,0.258L9.144,3.887z"/>
							<path clip-path="url(#SVGID_144_)" fill="#231F20" d="M54.32,19.356l0.259,0.258h0.042l-0.462-1.294l-0.097-0.096
								l0.045-0.045l-0.229-0.644l-0.253,0.252l-0.258-0.258l0.258-0.258l0.246,0.246l-0.485-1.359l-0.019-0.019l0.009-0.009
								l-0.229-0.644l-0.217,0.216l-0.259-0.258l0.259-0.258l0.17,0.169l-0.466-1.301H51.8l-0.259,0.258l-0.258-0.258h-0.874
								l-0.259,0.258l-0.258-0.258H49.02l-0.259,0.258l-0.258-0.258h-0.874l-0.258,0.258l-0.258-0.258h-0.395l0.51,1.275
								l0.143-0.144l0.258,0.258l-0.254,0.254l0.646,1.617l0.044-0.044l0.258,0.258l-0.154,0.154l0.722,1.802l0.129,0.129h0.873
								l0.258-0.258l0.259,0.258h0.874l0.258-0.258l0.259,0.258h0.873l0.259-0.258l0.258,0.258h0.875L54.32,19.356z M48.066,16.397
								l-0.258-0.258l0.258-0.258l0.258,0.258L48.066,16.397z M48.066,15.007l-0.258-0.258l0.258-0.258l0.258,0.258L48.066,15.007z
								 M48.761,18.482l-0.258-0.258l0.258-0.258l0.259,0.258L48.761,18.482z M48.761,17.092l-0.258-0.258l0.258-0.258l0.259,0.258
								L48.761,17.092z M48.761,15.702l-0.258-0.258l0.258-0.258l0.259,0.258L48.761,15.702z M49.456,19.177l-0.258-0.258
								l0.258-0.258l0.258,0.258L49.456,19.177z M49.456,17.787l-0.258-0.258l0.258-0.258l0.258,0.258L49.456,17.787z
								 M49.456,16.397l-0.258-0.258l0.258-0.258l0.258,0.258L49.456,16.397z M49.456,15.007l-0.258-0.258l0.258-0.258l0.258,0.258
								L49.456,15.007z M50.15,18.482l-0.258-0.258l0.258-0.258l0.259,0.258L50.15,18.482z M50.15,17.092l-0.258-0.258l0.258-0.258
								l0.259,0.258L50.15,17.092z M50.15,15.702l-0.258-0.258l0.258-0.258l0.259,0.258L50.15,15.702z M50.846,19.177l-0.258-0.258
								l0.258-0.258l0.26,0.258L50.846,19.177z M50.846,17.787l-0.258-0.258l0.258-0.258l0.26,0.258L50.846,17.787z M50.846,16.397
								l-0.258-0.258l0.258-0.258l0.26,0.258L50.846,16.397z M50.846,15.007l-0.258-0.258l0.258-0.258l0.26,0.258L50.846,15.007z
								 M51.541,18.482l-0.258-0.258l0.258-0.258l0.259,0.258L51.541,18.482z M51.541,17.092l-0.258-0.258l0.258-0.258l0.259,0.258
								L51.541,17.092z M51.541,15.702l-0.258-0.258l0.258-0.258l0.259,0.258L51.541,15.702z M52.236,19.177l-0.26-0.258l0.26-0.258
								l0.258,0.258L52.236,19.177z M52.236,17.787l-0.26-0.258l0.26-0.258l0.258,0.258L52.236,17.787z M52.236,16.397l-0.26-0.258
								l0.26-0.258l0.258,0.258L52.236,16.397z M52.236,15.007l-0.26-0.258l0.26-0.258l0.258,0.258L52.236,15.007z M52.932,18.482
								l-0.259-0.258l0.259-0.258l0.258,0.258L52.932,18.482z M52.932,17.092l-0.259-0.258l0.259-0.258l0.258,0.258L52.932,17.092z
								 M53.626,19.177l-0.258-0.258l0.258-0.258l0.259,0.258L53.626,19.177z"/>
							<path clip-path="url(#SVGID_144_)" fill="#231F20" d="M93.166,19.433v-1.028l-0.182-0.181l0.182-0.181v-1.028l-0.182-0.181
								l0.182-0.181v-1.028l-0.182-0.181l0.182-0.181v-1.028l-0.182-0.181h-0.873l-0.258,0.258l-0.26-0.258h-0.873l-0.259,0.258
								l-0.258-0.258H89.33l-0.258,0.258l-0.26-0.258h-0.873l-0.258,0.258l-0.078-0.077v1.028l0.078-0.078l0.258,0.258l-0.258,0.258
								l-0.078-0.077v1.028l0.078-0.078l0.258,0.258l-0.258,0.258l-0.078-0.077v1.028l0.078-0.077l0.258,0.258l-0.258,0.258
								l-0.078-0.077v1.028l0.078-0.077l0.258,0.258h0.873l0.26-0.258l0.258,0.258h0.874l0.258-0.258l0.259,0.258h0.873l0.26-0.258
								l0.258,0.258h0.873L93.166,19.433z M88.378,19.177l-0.259-0.258l0.259-0.258l0.258,0.258L88.378,19.177z M88.378,17.787
								l-0.259-0.258l0.259-0.258l0.258,0.258L88.378,17.787z M88.378,16.397l-0.259-0.258l0.259-0.258l0.258,0.258L88.378,16.397z
								 M88.378,15.007l-0.259-0.258l0.259-0.258l0.258,0.258L88.378,15.007z M89.073,18.482l-0.259-0.258l0.259-0.258l0.258,0.258
								L89.073,18.482z M89.073,17.092l-0.259-0.258l0.259-0.258l0.258,0.258L89.073,17.092z M89.073,15.702l-0.259-0.258
								l0.259-0.258l0.258,0.258L89.073,15.702z M89.768,19.177l-0.258-0.258l0.258-0.258l0.26,0.258L89.768,19.177z M89.768,17.787
								l-0.258-0.258l0.258-0.258l0.26,0.258L89.768,17.787z M89.768,16.397l-0.258-0.258l0.258-0.258l0.26,0.258L89.768,16.397z
								 M89.768,15.007l-0.258-0.258l0.258-0.258l0.26,0.258L89.768,15.007z M90.463,18.482l-0.258-0.258l0.258-0.258l0.258,0.258
								L90.463,18.482z M90.463,17.092l-0.258-0.258l0.258-0.258l0.258,0.258L90.463,17.092z M90.463,15.702l-0.258-0.258
								l0.258-0.258l0.258,0.258L90.463,15.702z M91.158,19.177l-0.26-0.258l0.26-0.258l0.258,0.258L91.158,19.177z M91.158,17.787
								l-0.26-0.258l0.26-0.258l0.258,0.258L91.158,17.787z M91.158,16.397l-0.26-0.258l0.26-0.258l0.258,0.258L91.158,16.397z
								 M91.158,15.007l-0.26-0.258l0.26-0.258l0.258,0.258L91.158,15.007z M91.854,18.482l-0.258-0.258l0.258-0.258l0.258,0.258
								L91.854,18.482z M91.854,17.092l-0.258-0.258l0.258-0.258l0.258,0.258L91.854,17.092z M91.854,15.702l-0.258-0.258
								l0.258-0.258l0.258,0.258L91.854,15.702z M92.548,19.177l-0.258-0.258l0.258-0.258l0.259,0.258L92.548,19.177z
								 M92.548,17.787l-0.258-0.258l0.258-0.258l0.259,0.258L92.548,17.787z M92.548,16.397l-0.258-0.258l0.258-0.258l0.259,0.258
								L92.548,16.397z M92.548,15.007l-0.258-0.258l0.258-0.258l0.259,0.258L92.548,15.007z"/>
							<path clip-path="url(#SVGID_144_)" fill="#231F20" d="M84.825,8.312V7.285l-0.181-0.181l0.181-0.181V5.895l-0.181-0.181
								l0.181-0.181V4.504l-0.181-0.181l0.181-0.181V3.114l-0.181-0.181H83.77l-0.258,0.258l-0.258-0.258H82.38l-0.258,0.258
								l-0.259-0.258H80.99l-0.258,0.258l-0.258-0.258H79.6l-0.258,0.258l-0.076-0.077v1.028l0.076-0.077L79.6,4.323l-0.258,0.258
								l-0.076-0.077v1.028l0.076-0.078L79.6,5.712L79.342,5.97l-0.076-0.077v1.028l0.076-0.078L79.6,7.101l-0.258,0.258
								l-0.076-0.077V8.31l0.076-0.077L79.6,8.491h0.875l0.258-0.258l0.258,0.258h0.874l0.259-0.258l0.258,0.258h0.874l0.259-0.258
								l0.258,0.258h0.873L84.825,8.312z M80.037,8.057l-0.258-0.258l0.258-0.258l0.259,0.258L80.037,8.057z M80.037,6.667
								l-0.258-0.258l0.258-0.258l0.259,0.258L80.037,6.667z M80.037,5.277l-0.258-0.258l0.258-0.258l0.259,0.258L80.037,5.277z
								 M80.037,3.887l-0.258-0.258l0.258-0.258l0.259,0.258L80.037,3.887z M80.732,7.362l-0.258-0.258l0.258-0.258l0.258,0.258
								L80.732,7.362z M80.732,5.972l-0.258-0.258l0.258-0.258l0.258,0.258L80.732,5.972z M80.732,4.582l-0.258-0.258l0.258-0.258
								l0.258,0.258L80.732,4.582z M81.428,8.057l-0.259-0.258l0.259-0.258l0.258,0.258L81.428,8.057z M81.428,6.667l-0.259-0.258
								l0.259-0.258l0.258,0.258L81.428,6.667z M81.428,5.277l-0.259-0.258l0.259-0.258l0.258,0.258L81.428,5.277z M81.428,3.887
								l-0.259-0.258l0.259-0.258l0.258,0.258L81.428,3.887z M82.123,7.362l-0.259-0.258l0.259-0.258l0.258,0.258L82.123,7.362z
								 M82.123,5.972l-0.259-0.258l0.259-0.258l0.258,0.258L82.123,5.972z M82.123,4.582l-0.259-0.258l0.259-0.258l0.258,0.258
								L82.123,4.582z M82.816,8.057l-0.256-0.258l0.258-0.258l0.259,0.258L82.816,8.057z M82.816,6.667l-0.256-0.258l0.258-0.258
								l0.259,0.258L82.816,6.667z M82.816,5.277l-0.256-0.258l0.258-0.258l0.259,0.258L82.816,5.277z M82.816,3.887l-0.256-0.259
								l0.258-0.258l0.259,0.258L82.816,3.887z M83.514,7.362l-0.259-0.258l0.259-0.258l0.258,0.258L83.514,7.362z M83.514,5.972
								l-0.259-0.258l0.259-0.258l0.258,0.258L83.514,5.972z M83.514,4.582l-0.259-0.258l0.259-0.258l0.258,0.258L83.514,4.582z
								 M84.208,8.057l-0.259-0.258l0.259-0.258l0.258,0.258L84.208,8.057z M84.208,6.667l-0.259-0.258l0.259-0.258l0.258,0.258
								L84.208,6.667z M84.208,5.277l-0.259-0.258l0.259-0.258l0.258,0.258L84.208,5.277z M84.208,3.887l-0.259-0.258l0.259-0.258
								l0.258,0.258L84.208,3.887z"/>
							<path clip-path="url(#SVGID_144_)" fill="#231F20" d="M41.733,27.773v-1.028l-0.181-0.181l0.181-0.182v-1.027l-0.181-0.182
								l0.181-0.182v-1.027l-0.181-0.182l0.181-0.182v-1.027l-0.181-0.182h-0.874L40.42,22.65l-0.258-0.258h-0.874L39.03,22.65
								l-0.258-0.258h-0.874L37.64,22.65l-0.258-0.258h-0.874L36.25,22.65l-0.258-0.258h-0.874L34.86,22.65l-0.258-0.258h-0.874
								L33.47,22.65l-0.258-0.258h-0.874L32.08,22.65l-0.258-0.258h-0.874L30.69,22.65l-0.078-0.076v1.027l0.078-0.076l0.258,0.258
								l-0.258,0.259l-0.078-0.077v1.027l0.078-0.077l0.258,0.259l-0.258,0.258l-0.078-0.076v1.027l0.078-0.076l0.258,0.258
								l-0.258,0.258l-0.078-0.077v1.028l0.078-0.078l0.258,0.26h0.874l0.258-0.26l0.258,0.26h0.874l0.258-0.26l0.258,0.26h0.874
								l0.258-0.26l0.258,0.26h0.874l0.258-0.26l0.258,0.26h0.874l0.258-0.26l0.258,0.26h0.874l0.258-0.26l0.258,0.26h0.874
								l0.258-0.26l0.258,0.26h0.874L41.733,27.773z M31.385,27.518l-0.258-0.258l0.258-0.259l0.258,0.259L31.385,27.518z
								 M31.385,26.128l-0.258-0.259l0.258-0.258l0.258,0.258L31.385,26.128z M31.385,24.736l-0.258-0.258l0.258-0.258l0.258,0.258
								L31.385,24.736z M31.385,23.348l-0.258-0.258l0.258-0.259l0.258,0.259L31.385,23.348z M32.08,26.822l-0.258-0.258
								l0.258-0.258l0.258,0.258L32.08,26.822z M32.08,25.434l-0.258-0.259l0.258-0.259l0.258,0.259L32.08,25.434z M32.08,24.043
								l-0.258-0.259l0.258-0.259l0.258,0.259L32.08,24.043z M32.775,27.518l-0.258-0.258l0.258-0.259l0.258,0.259L32.775,27.518z
								 M32.775,26.128l-0.258-0.259l0.258-0.258l0.258,0.258L32.775,26.128z M32.775,24.736l-0.258-0.258l0.258-0.258l0.258,0.258
								L32.775,24.736z M32.775,23.348l-0.258-0.258l0.258-0.259l0.258,0.259L32.775,23.348z M33.47,26.822l-0.258-0.258
								l0.258-0.258l0.258,0.258L33.47,26.822z M33.47,25.434l-0.258-0.259l0.258-0.259l0.258,0.259L33.47,25.434z M33.47,24.043
								l-0.258-0.259l0.258-0.259l0.258,0.259L33.47,24.043z M34.166,27.518l-0.258-0.258l0.258-0.259l0.258,0.259L34.166,27.518z
								 M34.166,26.128l-0.258-0.259l0.258-0.258l0.258,0.258L34.166,26.128z M34.166,24.736l-0.258-0.258l0.258-0.258l0.258,0.258
								L34.166,24.736z M34.166,23.348l-0.258-0.258l0.258-0.259l0.258,0.259L34.166,23.348z M34.86,26.822l-0.258-0.258
								l0.258-0.258l0.258,0.258L34.86,26.822z M34.86,25.434l-0.258-0.259l0.258-0.259l0.258,0.259L34.86,25.434z M34.86,24.043
								l-0.258-0.259l0.258-0.259l0.258,0.259L34.86,24.043z M35.556,27.518l-0.258-0.258l0.258-0.259l0.258,0.259L35.556,27.518z
								 M35.556,26.128l-0.258-0.259l0.258-0.258l0.258,0.258L35.556,26.128z M35.556,24.736l-0.258-0.258l0.258-0.258l0.258,0.258
								L35.556,24.736z M35.556,23.348l-0.258-0.258l0.258-0.259l0.258,0.259L35.556,23.348z M36.25,26.822l-0.258-0.258
								l0.258-0.258l0.258,0.258L36.25,26.822z M36.25,25.434l-0.258-0.259l0.258-0.259l0.258,0.259L36.25,25.434z M36.25,24.043
								l-0.258-0.259l0.258-0.259l0.258,0.259L36.25,24.043z M36.945,27.518l-0.258-0.258l0.258-0.259l0.258,0.259L36.945,27.518z
								 M36.945,26.128l-0.258-0.259l0.258-0.258l0.258,0.258L36.945,26.128z M36.945,24.736l-0.258-0.258l0.258-0.258l0.258,0.258
								L36.945,24.736z M36.945,23.348l-0.258-0.258l0.258-0.259l0.258,0.259L36.945,23.348z M37.641,26.822l-0.258-0.258
								l0.258-0.258l0.258,0.258L37.641,26.822z M37.641,25.434l-0.258-0.259l0.258-0.259l0.258,0.259L37.641,25.434z
								 M37.641,24.043l-0.258-0.259l0.258-0.259l0.258,0.259L37.641,24.043z M38.335,27.518l-0.258-0.258l0.258-0.259l0.258,0.259
								L38.335,27.518z M38.335,26.128l-0.258-0.259l0.258-0.258l0.258,0.258L38.335,26.128z M38.335,24.736l-0.258-0.258
								l0.258-0.258l0.258,0.258L38.335,24.736z M38.335,23.348l-0.258-0.258l0.258-0.259l0.258,0.259L38.335,23.348z
								 M39.031,26.822l-0.258-0.258l0.258-0.258l0.258,0.258L39.031,26.822z M39.031,25.434l-0.258-0.259l0.258-0.259l0.258,0.259
								L39.031,25.434z M39.031,24.043l-0.258-0.259l0.258-0.259l0.258,0.259L39.031,24.043z M39.726,27.518l-0.258-0.258
								l0.258-0.259l0.258,0.259L39.726,27.518z M39.726,26.128l-0.258-0.259l0.258-0.258l0.258,0.258L39.726,26.128z
								 M39.726,24.736l-0.258-0.258l0.258-0.258l0.258,0.258L39.726,24.736z M39.726,23.348l-0.258-0.258l0.258-0.259l0.258,0.259
								L39.726,23.348z M40.421,26.822l-0.258-0.258l0.258-0.258l0.258,0.258L40.421,26.822z M40.421,25.434l-0.258-0.259
								l0.258-0.259l0.258,0.259L40.421,25.434z M40.421,24.043l-0.258-0.259l0.258-0.259l0.258,0.259L40.421,24.043z
								 M41.116,27.518l-0.258-0.258l0.258-0.259l0.258,0.259L41.116,27.518z M41.116,26.128l-0.258-0.259l0.258-0.258l0.258,0.258
								L41.116,26.128z M41.116,24.736l-0.258-0.258l0.258-0.258l0.258,0.258L41.116,24.736z M41.116,23.348l-0.258-0.258
								l0.258-0.259l0.258,0.259L41.116,23.348z"/>
							<path clip-path="url(#SVGID_144_)" fill="#231F20" d="M67.964,25.175l0.172-0.173c-0.083-1.35-1.125-2.438-2.454-2.588
								l-0.24,0.238l-0.248-0.25c-0.614,0.039-1.176,0.272-1.618,0.646l0.041,0.041l-0.259,0.258l-0.045-0.043
								c-0.41,0.449-0.674,1.033-0.719,1.68l0.068-0.067l0.258,0.259l-0.258,0.258l-0.068-0.066c0.045,0.646,0.309,1.23,0.719,1.681
								l0.045-0.045l0.259,0.259l-0.041,0.04c0.442,0.373,1.004,0.608,1.618,0.646l0.248-0.249l0.24,0.238
								c1.329-0.15,2.373-1.238,2.454-2.588L67.964,25.175z M63.355,26.128l-0.258-0.259l0.258-0.258l0.26,0.258L63.355,26.128z
								 M63.355,24.736l-0.258-0.258l0.258-0.258l0.26,0.258L63.355,24.736z M64.052,26.822l-0.258-0.258l0.258-0.258l0.259,0.258
								L64.052,26.822z M64.052,25.434l-0.258-0.259l0.258-0.259l0.259,0.259L64.052,25.434z M64.052,24.043l-0.258-0.259
								l0.258-0.259l0.259,0.259L64.052,24.043z M64.747,27.518l-0.259-0.258l0.259-0.259l0.258,0.259L64.747,27.518z
								 M64.747,26.128l-0.259-0.259l0.259-0.258l0.258,0.258L64.747,26.128z M64.747,24.736l-0.259-0.258l0.259-0.258l0.258,0.258
								L64.747,24.736z M64.747,23.348l-0.259-0.258l0.259-0.259l0.258,0.259L64.747,23.348z M65.441,26.822l-0.258-0.258
								l0.258-0.258l0.259,0.258L65.441,26.822z M65.441,25.434l-0.258-0.259l0.258-0.259l0.259,0.259L65.441,25.434z
								 M65.441,24.043l-0.258-0.259l0.258-0.259l0.259,0.259L65.441,24.043z M66.137,27.518l-0.258-0.258l0.258-0.259l0.26,0.259
								L66.137,27.518z M66.137,26.128l-0.258-0.259l0.258-0.258l0.26,0.258L66.137,26.128z M66.137,24.736l-0.258-0.258
								l0.258-0.258l0.26,0.258L66.137,24.736z M66.137,23.348l-0.258-0.258l0.258-0.259l0.26,0.259L66.137,23.348z M66.832,26.822
								l-0.259-0.258l0.259-0.258l0.258,0.258L66.832,26.822z M66.832,25.434l-0.259-0.259l0.259-0.259l0.258,0.259L66.832,25.434z
								 M66.832,24.043l-0.259-0.259l0.259-0.259l0.258,0.259L66.832,24.043z M67.527,26.128l-0.26-0.259l0.26-0.258l0.258,0.258
								L67.527,26.128z M67.527,24.736l-0.26-0.258l0.26-0.258l0.258,0.258L67.527,24.736z"/>
							<path clip-path="url(#SVGID_144_)" fill="#231F20" d="M90.195,36.295l0.172-0.173c-0.083-1.349-1.126-2.438-2.455-2.588
								l-0.239,0.239l-0.249-0.25c-0.615,0.037-1.176,0.272-1.617,0.646l0.039,0.04l-0.258,0.258l-0.044-0.044
								c-0.41,0.45-0.675,1.034-0.719,1.681l0.067-0.066l0.258,0.258l-0.258,0.258l-0.067-0.066
								c0.044,0.646,0.308,1.229,0.719,1.681l0.044-0.044l0.258,0.258l-0.039,0.041c0.441,0.373,1.002,0.607,1.617,0.646l0.249-0.25
								l0.239,0.238c1.33-0.149,2.373-1.238,2.455-2.588L90.195,36.295z M85.588,37.248L85.33,36.99l0.258-0.26l0.258,0.26
								L85.588,37.248z M85.588,35.857L85.33,35.6l0.258-0.258l0.258,0.258L85.588,35.857z M86.283,37.943l-0.26-0.258l0.26-0.26
								l0.258,0.26L86.283,37.943z M86.283,36.553l-0.26-0.258l0.26-0.258l0.258,0.258L86.283,36.553z M86.283,35.163l-0.26-0.258
								l0.26-0.259l0.258,0.259L86.283,35.163z M86.979,38.639l-0.258-0.259l0.258-0.258l0.258,0.258L86.979,38.639z M86.979,37.248
								l-0.258-0.258l0.258-0.26l0.258,0.26L86.979,37.248z M86.979,35.857L86.721,35.6l0.258-0.258l0.258,0.258L86.979,35.857z
								 M86.979,34.468l-0.258-0.258l0.258-0.259l0.258,0.259L86.979,34.468z M87.673,37.943l-0.258-0.258l0.258-0.26l0.259,0.26
								L87.673,37.943z M87.673,36.553l-0.258-0.258l0.258-0.258l0.259,0.258L87.673,36.553z M87.673,35.163l-0.258-0.258
								l0.258-0.259l0.259,0.259L87.673,35.163z M88.368,38.639l-0.259-0.259l0.259-0.258l0.258,0.258L88.368,38.639z
								 M88.368,37.248l-0.259-0.258l0.259-0.26l0.258,0.26L88.368,37.248z M88.368,35.857L88.109,35.6l0.259-0.258l0.258,0.258
								L88.368,35.857z M88.368,34.468l-0.259-0.258l0.259-0.259l0.258,0.259L88.368,34.468z M89.062,37.943l-0.258-0.258
								l0.258-0.26l0.258,0.26L89.062,37.943z M89.062,36.553l-0.258-0.258l0.258-0.258l0.258,0.258L89.062,36.553z M89.062,35.163
								l-0.258-0.258l0.258-0.259l0.258,0.259L89.062,35.163z M89.758,37.248L89.5,36.99l0.258-0.26l0.26,0.26L89.758,37.248z
								 M89.758,35.857L89.5,35.6l0.258-0.258l0.26,0.258L89.758,35.857z"/>
						</g>
						<g>
							<defs>
								<rect id="SVGID_145_" x="2.812" y="2.934" width="90.354" height="36.132"/>
							</defs>
							<clipPath id="SVGID_146_">
								<use xlink:href="#SVGID_145_"  overflow="visible"/>
							</clipPath>
							<g clip-path="url(#SVGID_146_)">
								<g>
									<defs>
										<rect id="SVGID_147_" x="2.812" y="2.934" width="90.354" height="36.132"/>
									</defs>
									<clipPath id="SVGID_148_">
										<use xlink:href="#SVGID_147_"  overflow="visible"/>
									</clipPath>
									<path clip-path="url(#SVGID_148_)" fill="#231F20" d="M34.386,19.614h5.679l-1.112,2.78h-5.56L34.386,19.614z
										 M36.372,14.054h5.917l2.224-5.56h-6.156L36.372,14.054z M5.592,14.054v5.561v2.779h5.56v-2.779v-5.561v-5.56h-5.56V14.054
										z M79.266,2.934c0,0-8.341,0-8.341,8.34v2.78h5.562v-2.78c0,0,0-2.78,2.779-2.78V2.934z M93.166,19.614h-5.561
										c0,0,0,2.78-2.78,2.78h-5.562l2.226,5.561h0.02l1.112,2.779h5.561l-0.992-2.779h-0.021l-0.116-0.326
										C89.523,26.995,93.166,25.127,93.166,19.614 M48.962,19.614l1.112,2.78h5.56l-0.991-2.78H48.962z M50.77,8.494h-6.157
										l2.224,5.56h5.918L50.77,8.494z"/>
								</g>
								<g>
									<defs>
										<rect id="SVGID_149_" x="2.812" y="2.934" width="90.354" height="36.132"/>
									</defs>
									<clipPath id="SVGID_150_">
										<use xlink:href="#SVGID_149_"  overflow="visible"/>
									</clipPath>
									<g clip-path="url(#SVGID_150_)">
										<g>
											<defs>
												<rect id="SVGID_151_" x="2.812" y="2.934" width="90.354" height="36.132"/>
											</defs>
											<defs>
												<rect id="SVGID_152_" x="2.812" y="2.934" width="90.354" height="36.132"/>
											</defs>
											<defs>
												<rect id="SVGID_153_" x="2.812" y="2.934" width="90.354" height="36.132"/>
											</defs>
											<defs>
												<rect id="SVGID_154_" x="2.812" y="2.934" width="90.354" height="36.132"/>
											</defs>
											<defs>
												<rect id="SVGID_155_" x="2.812" y="2.934" width="90.354" height="36.132"/>
											</defs>
											<defs>
												<rect id="SVGID_156_" x="2.812" y="2.934" width="90.354" height="36.132"/>
											</defs>
											<defs>
												<rect id="SVGID_157_" x="2.812" y="2.934" width="90.354" height="36.132"/>
											</defs>
											<defs>
												<rect id="SVGID_158_" x="2.812" y="2.934" width="90.354" height="36.132"/>
											</defs>
											<defs>
												<rect id="SVGID_159_" x="2.812" y="2.934" width="90.354" height="36.132"/>
											</defs>
											<defs>
												<rect id="SVGID_160_" x="2.812" y="2.934" width="90.354" height="36.132"/>
											</defs>
											<defs>
												<rect id="SVGID_161_" x="2.812" y="2.934" width="90.354" height="36.132"/>
											</defs>
											<defs>
												<rect id="SVGID_162_" x="2.812" y="2.934" width="90.354" height="36.132"/>
											</defs>
											<defs>
												<rect id="SVGID_163_" x="2.812" y="2.934" width="90.354" height="36.132"/>
											</defs>
											<defs>
												<rect id="SVGID_164_" x="2.812" y="2.934" width="90.354" height="36.132"/>
											</defs>
											<defs>
												<rect id="SVGID_165_" x="2.812" y="2.934" width="90.354" height="36.132"/>
											</defs>
											<defs>
												<rect id="SVGID_166_" x="2.812" y="2.934" width="90.354" height="36.132"/>
											</defs>
											<defs>
												<rect id="SVGID_167_" x="2.812" y="2.934" width="90.354" height="36.132"/>
											</defs>
											<defs>
												<rect id="SVGID_168_" x="2.812" y="2.934" width="90.354" height="36.132"/>
											</defs>
											<defs>
												<rect id="SVGID_169_" x="2.812" y="2.934" width="90.354" height="36.132"/>
											</defs>
											<defs>
												<rect id="SVGID_170_" x="2.812" y="2.934" width="90.354" height="36.132"/>
											</defs>
											<defs>
												<rect id="SVGID_171_" x="2.812" y="2.934" width="90.354" height="36.132"/>
											</defs>
											<defs>
												<rect id="SVGID_172_" x="2.812" y="2.934" width="90.354" height="36.132"/>
											</defs>
											<defs>
												<rect id="SVGID_173_" x="2.812" y="2.934" width="90.354" height="36.132"/>
											</defs>
											<defs>
												<rect id="SVGID_174_" x="2.812" y="2.934" width="90.354" height="36.132"/>
											</defs>
											<defs>
												<rect id="SVGID_175_" x="2.812" y="2.934" width="90.354" height="36.132"/>
											</defs>
											<defs>
												<rect id="SVGID_176_" x="2.812" y="2.934" width="90.354" height="36.132"/>
											</defs>
											<defs>
												<rect id="SVGID_177_" x="2.812" y="2.934" width="90.354" height="36.132"/>
											</defs>
											<defs>
												<rect id="SVGID_178_" x="2.812" y="2.934" width="90.354" height="36.132"/>
											</defs>
											<defs>
												<rect id="SVGID_179_" x="2.812" y="2.934" width="90.354" height="36.132"/>
											</defs>
											<defs>
												<rect id="SVGID_180_" x="2.812" y="2.934" width="90.354" height="36.132"/>
											</defs>
											<defs>
												<rect id="SVGID_181_" x="2.812" y="2.934" width="90.354" height="36.132"/>
											</defs>
											<defs>
												<rect id="SVGID_182_" x="2.812" y="2.934" width="90.354" height="36.132"/>
											</defs>
											<defs>
												<rect id="SVGID_183_" x="2.812" y="2.934" width="90.354" height="36.132"/>
											</defs>
											<defs>
												<rect id="SVGID_184_" x="2.812" y="2.934" width="90.354" height="36.132"/>
											</defs>
											<defs>
												<rect id="SVGID_185_" x="2.812" y="2.934" width="90.354" height="36.132"/>
											</defs>
											<defs>
												<rect id="SVGID_186_" x="2.812" y="2.934" width="90.354" height="36.132"/>
											</defs>
											<defs>
												<rect id="SVGID_187_" x="2.812" y="2.934" width="90.354" height="36.132"/>
											</defs>
											<defs>
												<rect id="SVGID_188_" x="2.812" y="2.934" width="90.354" height="36.132"/>
											</defs>
											<defs>
												<rect id="SVGID_189_" x="2.812" y="2.934" width="90.354" height="36.132"/>
											</defs>
											<defs>
												<rect id="SVGID_190_" x="2.812" y="2.934" width="90.354" height="36.132"/>
											</defs>
											<defs>
												<rect id="SVGID_191_" x="2.812" y="2.934" width="90.354" height="36.132"/>
											</defs>
											<defs>
												<rect id="SVGID_192_" x="2.812" y="2.934" width="90.354" height="36.132"/>
											</defs>
											<defs>
												<rect id="SVGID_193_" x="2.812" y="2.934" width="90.354" height="36.132"/>
											</defs>
											<defs>
												<rect id="SVGID_194_" x="2.812" y="2.934" width="90.354" height="36.132"/>
											</defs>
											<defs>
												<rect id="SVGID_195_" x="2.812" y="2.934" width="90.354" height="36.132"/>
											</defs>
											<defs>
												<rect id="SVGID_196_" x="2.812" y="2.934" width="90.354" height="36.132"/>
											</defs>
											<defs>
												<rect id="SVGID_197_" x="2.812" y="2.934" width="90.354" height="36.132"/>
											</defs>
											<defs>
												<rect id="SVGID_198_" x="2.812" y="2.934" width="90.354" height="36.132"/>
											</defs>
											<defs>
												<rect id="SVGID_199_" x="2.812" y="2.934" width="90.354" height="36.132"/>
											</defs>
											<defs>
												<rect id="SVGID_200_" x="2.812" y="2.934" width="90.354" height="36.132"/>
											</defs>
											<clipPath id="SVGID_201_">
												<use xlink:href="#SVGID_151_"  overflow="visible"/>
											</clipPath>
											<clipPath id="SVGID_202_" clip-path="url(#SVGID_201_)">
												<use xlink:href="#SVGID_152_"  overflow="visible"/>
											</clipPath>
											<clipPath id="SVGID_203_" clip-path="url(#SVGID_202_)">
												<use xlink:href="#SVGID_153_"  overflow="visible"/>
											</clipPath>
											<clipPath id="SVGID_204_" clip-path="url(#SVGID_203_)">
												<use xlink:href="#SVGID_154_"  overflow="visible"/>
											</clipPath>
											<clipPath id="SVGID_205_" clip-path="url(#SVGID_204_)">
												<use xlink:href="#SVGID_155_"  overflow="visible"/>
											</clipPath>
											<clipPath id="SVGID_206_" clip-path="url(#SVGID_205_)">
												<use xlink:href="#SVGID_156_"  overflow="visible"/>
											</clipPath>
											<clipPath id="SVGID_207_" clip-path="url(#SVGID_206_)">
												<use xlink:href="#SVGID_157_"  overflow="visible"/>
											</clipPath>
											<clipPath id="SVGID_208_" clip-path="url(#SVGID_207_)">
												<use xlink:href="#SVGID_158_"  overflow="visible"/>
											</clipPath>
											<clipPath id="SVGID_209_" clip-path="url(#SVGID_208_)">
												<use xlink:href="#SVGID_159_"  overflow="visible"/>
											</clipPath>
											<clipPath id="SVGID_210_" clip-path="url(#SVGID_209_)">
												<use xlink:href="#SVGID_160_"  overflow="visible"/>
											</clipPath>
											<clipPath id="SVGID_211_" clip-path="url(#SVGID_210_)">
												<use xlink:href="#SVGID_161_"  overflow="visible"/>
											</clipPath>
											<clipPath id="SVGID_212_" clip-path="url(#SVGID_211_)">
												<use xlink:href="#SVGID_162_"  overflow="visible"/>
											</clipPath>
											<clipPath id="SVGID_213_" clip-path="url(#SVGID_212_)">
												<use xlink:href="#SVGID_163_"  overflow="visible"/>
											</clipPath>
											<clipPath id="SVGID_214_" clip-path="url(#SVGID_213_)">
												<use xlink:href="#SVGID_164_"  overflow="visible"/>
											</clipPath>
											<clipPath id="SVGID_215_" clip-path="url(#SVGID_214_)">
												<use xlink:href="#SVGID_165_"  overflow="visible"/>
											</clipPath>
											<clipPath id="SVGID_216_" clip-path="url(#SVGID_215_)">
												<use xlink:href="#SVGID_166_"  overflow="visible"/>
											</clipPath>
											<clipPath id="SVGID_217_" clip-path="url(#SVGID_216_)">
												<use xlink:href="#SVGID_167_"  overflow="visible"/>
											</clipPath>
											<clipPath id="SVGID_218_" clip-path="url(#SVGID_217_)">
												<use xlink:href="#SVGID_168_"  overflow="visible"/>
											</clipPath>
											<clipPath id="SVGID_219_" clip-path="url(#SVGID_218_)">
												<use xlink:href="#SVGID_169_"  overflow="visible"/>
											</clipPath>
											<clipPath id="SVGID_220_" clip-path="url(#SVGID_219_)">
												<use xlink:href="#SVGID_170_"  overflow="visible"/>
											</clipPath>
											<clipPath id="SVGID_221_" clip-path="url(#SVGID_220_)">
												<use xlink:href="#SVGID_171_"  overflow="visible"/>
											</clipPath>
											<clipPath id="SVGID_222_" clip-path="url(#SVGID_221_)">
												<use xlink:href="#SVGID_172_"  overflow="visible"/>
											</clipPath>
											<clipPath id="SVGID_223_" clip-path="url(#SVGID_222_)">
												<use xlink:href="#SVGID_173_"  overflow="visible"/>
											</clipPath>
											<clipPath id="SVGID_224_" clip-path="url(#SVGID_223_)">
												<use xlink:href="#SVGID_174_"  overflow="visible"/>
											</clipPath>
											<clipPath id="SVGID_225_" clip-path="url(#SVGID_224_)">
												<use xlink:href="#SVGID_175_"  overflow="visible"/>
											</clipPath>
											<clipPath id="SVGID_226_" clip-path="url(#SVGID_225_)">
												<use xlink:href="#SVGID_176_"  overflow="visible"/>
											</clipPath>
											<clipPath id="SVGID_227_" clip-path="url(#SVGID_226_)">
												<use xlink:href="#SVGID_177_"  overflow="visible"/>
											</clipPath>
											<clipPath id="SVGID_228_" clip-path="url(#SVGID_227_)">
												<use xlink:href="#SVGID_178_"  overflow="visible"/>
											</clipPath>
											<clipPath id="SVGID_229_" clip-path="url(#SVGID_228_)">
												<use xlink:href="#SVGID_179_"  overflow="visible"/>
											</clipPath>
											<clipPath id="SVGID_230_" clip-path="url(#SVGID_229_)">
												<use xlink:href="#SVGID_180_"  overflow="visible"/>
											</clipPath>
											<clipPath id="SVGID_231_" clip-path="url(#SVGID_230_)">
												<use xlink:href="#SVGID_181_"  overflow="visible"/>
											</clipPath>
											<clipPath id="SVGID_232_" clip-path="url(#SVGID_231_)">
												<use xlink:href="#SVGID_182_"  overflow="visible"/>
											</clipPath>
											<clipPath id="SVGID_233_" clip-path="url(#SVGID_232_)">
												<use xlink:href="#SVGID_183_"  overflow="visible"/>
											</clipPath>
											<clipPath id="SVGID_234_" clip-path="url(#SVGID_233_)">
												<use xlink:href="#SVGID_184_"  overflow="visible"/>
											</clipPath>
											<clipPath id="SVGID_235_" clip-path="url(#SVGID_234_)">
												<use xlink:href="#SVGID_185_"  overflow="visible"/>
											</clipPath>
											<clipPath id="SVGID_236_" clip-path="url(#SVGID_235_)">
												<use xlink:href="#SVGID_186_"  overflow="visible"/>
											</clipPath>
											<clipPath id="SVGID_237_" clip-path="url(#SVGID_236_)">
												<use xlink:href="#SVGID_187_"  overflow="visible"/>
											</clipPath>
											<clipPath id="SVGID_238_" clip-path="url(#SVGID_237_)">
												<use xlink:href="#SVGID_188_"  overflow="visible"/>
											</clipPath>
											<clipPath id="SVGID_239_" clip-path="url(#SVGID_238_)">
												<use xlink:href="#SVGID_189_"  overflow="visible"/>
											</clipPath>
											<clipPath id="SVGID_240_" clip-path="url(#SVGID_239_)">
												<use xlink:href="#SVGID_190_"  overflow="visible"/>
											</clipPath>
											<clipPath id="SVGID_241_" clip-path="url(#SVGID_240_)">
												<use xlink:href="#SVGID_191_"  overflow="visible"/>
											</clipPath>
											<clipPath id="SVGID_242_" clip-path="url(#SVGID_241_)">
												<use xlink:href="#SVGID_192_"  overflow="visible"/>
											</clipPath>
											<clipPath id="SVGID_243_" clip-path="url(#SVGID_242_)">
												<use xlink:href="#SVGID_193_"  overflow="visible"/>
											</clipPath>
											<clipPath id="SVGID_244_" clip-path="url(#SVGID_243_)">
												<use xlink:href="#SVGID_194_"  overflow="visible"/>
											</clipPath>
											<clipPath id="SVGID_245_" clip-path="url(#SVGID_244_)">
												<use xlink:href="#SVGID_195_"  overflow="visible"/>
											</clipPath>
											<clipPath id="SVGID_246_" clip-path="url(#SVGID_245_)">
												<use xlink:href="#SVGID_196_"  overflow="visible"/>
											</clipPath>
											<clipPath id="SVGID_247_" clip-path="url(#SVGID_246_)">
												<use xlink:href="#SVGID_197_"  overflow="visible"/>
											</clipPath>
											<clipPath id="SVGID_248_" clip-path="url(#SVGID_247_)">
												<use xlink:href="#SVGID_198_"  overflow="visible"/>
											</clipPath>
											<clipPath id="SVGID_249_" clip-path="url(#SVGID_248_)">
												<use xlink:href="#SVGID_199_"  overflow="visible"/>
											</clipPath>
											<clipPath id="SVGID_250_" clip-path="url(#SVGID_249_)">
												<use xlink:href="#SVGID_200_"  overflow="visible"/>
											</clipPath>
											<path clip-path="url(#SVGID_250_)" fill="#231F20" d="M80.004,26.674l4.279-4.279h-0.252h-0.186l-4.062,4.062
												l-1.429,1.428c0.146,0.019,0.278,0.032,0.396,0.043L80.004,26.674z"/>
											<polygon clip-path="url(#SVGID_250_)" fill="#231F20" points="81.395,26.674 84.825,23.242 84.825,22.805 81.175,26.455 
												79.676,27.955 80.111,27.955 											"/>
											<polygon clip-path="url(#SVGID_250_)" fill="#231F20" points="82.783,26.674 84.825,24.632 84.825,24.195 82.564,26.455 
												81.064,27.955 81.503,27.955 											"/>
											<polygon clip-path="url(#SVGID_250_)" fill="#231F20" points="41.191,14.054 40.754,14.054 39.473,15.335 35.194,19.614 
												35.631,19.614 39.691,15.553 											"/>
											<path clip-path="url(#SVGID_250_)" fill="#231F20" d="M77.225,26.674l4.278-4.279h-0.438l-4.061,4.062l-0.891,0.892
												c0.109,0.039,0.219,0.076,0.326,0.11L77.225,26.674z"/>
											<polygon clip-path="url(#SVGID_250_)" fill="#231F20" points="84.174,26.674 84.825,26.021 84.825,25.585 83.955,26.455 
												82.456,27.955 82.893,27.955 											"/>
											<path clip-path="url(#SVGID_250_)" fill="#231F20" d="M78.613,26.674l4.279-4.279h-0.438l-4.062,4.062l-1.209,1.211
												c0.121,0.028,0.24,0.056,0.356,0.079L78.613,26.674z"/>
											<polygon clip-path="url(#SVGID_250_)" fill="#231F20" points="38.411,14.054 37.974,14.054 36.693,15.335 35.482,16.546 
												35.239,17.226 36.912,15.553 											"/>
											<polygon clip-path="url(#SVGID_250_)" fill="#231F20" points="39.801,14.054 39.364,14.054 38.083,15.335 34.71,18.708 
												34.467,19.388 38.302,15.553 											"/>
											<polygon clip-path="url(#SVGID_250_)" fill="#231F20" points="84.825,27.412 84.825,26.977 83.846,27.955 84.283,27.955 
																							"/>
											<polygon clip-path="url(#SVGID_250_)" fill="#231F20" points="36.012,15.063 37.021,14.054 36.584,14.054 36.254,14.384 
																							"/>
											<path clip-path="url(#SVGID_250_)" fill="#231F20" d="M75.833,26.674l4.278-4.279h-0.051h-0.385l-4.061,4.062
												l-0.479,0.478c0.1,0.049,0.198,0.097,0.297,0.141L75.833,26.674z"/>
											<path clip-path="url(#SVGID_250_)" fill="#231F20" d="M72.168,24.342c0.059,0.09,0.115,0.176,0.176,0.262l3.489-3.489
												l0.76-0.76c-0.034-0.134-0.058-0.257-0.073-0.363l-0.903,0.905L72.168,24.342z"/>
											<polygon clip-path="url(#SVGID_250_)" fill="#231F20" points="74.443,15.553 75.941,14.054 75.506,14.054 74.225,15.335 
												70.925,18.635 70.925,19.071 											"/>
											<polygon clip-path="url(#SVGID_250_)" fill="#231F20" points="74.553,14.054 74.115,14.054 72.835,15.335 70.925,17.245 
												70.925,17.682 73.053,15.553 											"/>
											<polygon clip-path="url(#SVGID_250_)" fill="#231F20" points="41.082,15.553 42.581,14.054 42.29,14.054 42.144,14.054 
												40.863,15.335 36.584,19.614 37.021,19.614 											"/>
											<polygon clip-path="url(#SVGID_250_)" fill="#231F20" points="70.925,14.901 71.771,14.054 71.335,14.054 70.925,14.464 
																							"/>
											<polygon clip-path="url(#SVGID_250_)" fill="#231F20" points="73.162,14.054 72.727,14.054 71.443,15.335 70.925,15.854 
												70.925,16.292 71.663,15.553 											"/>
											<path clip-path="url(#SVGID_250_)" fill="#231F20" d="M77.018,21.318c-0.061-0.09-0.115-0.182-0.162-0.273l-4.092,4.091
												c0.068,0.078,0.139,0.154,0.209,0.229L77.018,21.318z"/>
											<path clip-path="url(#SVGID_250_)" fill="#231F20" d="M77.727,22.001c-0.093-0.058-0.178-0.117-0.256-0.183l-4.01,4.011
												c0.078,0.067,0.158,0.135,0.238,0.198L77.727,22.001z"/>
											<path clip-path="url(#SVGID_250_)" fill="#231F20" d="M76.484,17.682v-0.437l-3.649,3.651l-1.533,1.531
												c0.033,0.113,0.068,0.225,0.105,0.331l1.646-1.646L76.484,17.682z"/>
											<path clip-path="url(#SVGID_250_)" fill="#231F20" d="M76.484,16.292v-0.437l-5.041,5.042L71.05,21.29
												c0.021,0.126,0.041,0.25,0.065,0.372l0.548-0.549L76.484,16.292z"/>
											<path clip-path="url(#SVGID_250_)" fill="#231F20" d="M70.954,20.433l4.879-4.879l0.651-0.652v-0.437l-0.869,0.871
												l-4.684,4.683C70.938,20.159,70.943,20.297,70.954,20.433"/>
											<path clip-path="url(#SVGID_250_)" fill="#231F20" d="M74.443,21.113l2.041-2.042v-0.437l-2.26,2.261l-2.548,2.547
												c0.046,0.102,0.093,0.199,0.142,0.295L74.443,21.113z"/>
											<path clip-path="url(#SVGID_250_)" fill="#231F20" d="M78.757,22.359c-0.128-0.019-0.249-0.043-0.362-0.073l-4.142,4.142
												c0.089,0.059,0.179,0.115,0.269,0.17L78.757,22.359z"/>
											<polygon clip-path="url(#SVGID_250_)" fill="#231F20" points="13.39,14.054 12.953,14.054 11.672,15.335 11.152,15.854 
												11.152,16.292 11.891,15.553 											"/>
											<polygon clip-path="url(#SVGID_250_)" fill="#231F20" points="17.232,4.214 12.953,8.494 13.39,8.494 17.451,4.433 
												18.103,3.781 18.103,3.344 											"/>
											<polygon clip-path="url(#SVGID_250_)" fill="#231F20" points="14.452,4.214 11.152,7.514 11.152,7.951 14.67,4.433 
												16.17,2.934 15.733,2.934 											"/>
											<polygon clip-path="url(#SVGID_250_)" fill="#231F20" points="12,14.054 11.563,14.054 11.152,14.465 11.152,14.901 
																							"/>
											<polygon clip-path="url(#SVGID_250_)" fill="#231F20" points="15.842,4.214 11.563,8.494 12,8.494 16.061,4.433 
												17.56,2.934 17.123,2.934 											"/>
											<polygon clip-path="url(#SVGID_250_)" fill="#231F20" points="14.343,8.494 14.78,8.494 18.103,5.171 18.103,4.734 
																							"/>
											<polygon clip-path="url(#SVGID_250_)" fill="#231F20" points="17.123,8.494 17.56,8.494 18.103,7.951 18.103,7.514 
																							"/>
											<polygon clip-path="url(#SVGID_250_)" fill="#231F20" points="15.733,8.494 16.17,8.494 18.103,6.561 18.103,6.124 
																							"/>
											<polygon clip-path="url(#SVGID_250_)" fill="#231F20" points="42.472,15.553 43.971,14.054 43.534,14.054 42.253,15.335 
												37.974,19.614 38.411,19.614 											"/>
											<polygon clip-path="url(#SVGID_250_)" fill="#231F20" points="16.712,17.682 16.712,17.245 14.343,19.614 14.78,19.614 
																							"/>
											<polygon clip-path="url(#SVGID_250_)" fill="#231F20" points="14.67,15.553 16.17,14.054 15.733,14.054 14.452,15.335 
												11.152,18.635 11.152,19.072 											"/>
											<polygon clip-path="url(#SVGID_250_)" fill="#231F20" points="16.061,15.553 16.712,14.901 16.712,14.465 15.842,15.335 
												11.563,19.614 12,19.614 											"/>
											<polygon clip-path="url(#SVGID_250_)" fill="#231F20" points="13.28,15.553 14.78,14.054 14.343,14.054 13.062,15.335 
												11.152,17.245 11.152,17.682 											"/>
											<polygon clip-path="url(#SVGID_250_)" fill="#231F20" points="16.712,16.292 16.712,15.854 12.953,19.614 13.39,19.614 
																							"/>
											<polygon clip-path="url(#SVGID_250_)" fill="#231F20" points="46.642,15.553 47.139,15.057 47.014,14.745 46.424,15.335 
												42.144,19.614 42.581,19.614 											"/>
											<polygon clip-path="url(#SVGID_250_)" fill="#231F20" points="47.933,17.042 47.808,16.73 44.924,19.614 45.361,19.614 
																							"/>
											<polygon clip-path="url(#SVGID_250_)" fill="#231F20" points="47.536,16.049 47.411,15.737 43.534,19.614 43.971,19.614 
																							"/>
											<polygon clip-path="url(#SVGID_250_)" fill="#231F20" points="13.28,4.433 14.78,2.934 14.343,2.934 13.062,4.214 
												11.152,6.124 11.152,6.561 											"/>
											<polygon clip-path="url(#SVGID_250_)" fill="#231F20" points="45.252,15.553 46.742,14.063 46.738,14.054 46.314,14.054 
												45.034,15.335 40.754,19.614 41.191,19.614 											"/>
											<polygon clip-path="url(#SVGID_250_)" fill="#231F20" points="43.862,15.553 45.361,14.054 44.924,14.054 43.644,15.335 
												39.364,19.614 39.801,19.614 											"/>
											<polygon clip-path="url(#SVGID_250_)" fill="#231F20" points="48.33,18.035 48.206,17.723 46.314,19.614 46.751,19.614 
																							"/>
											<polygon clip-path="url(#SVGID_250_)" fill="#231F20" points="13.39,2.934 12.953,2.934 11.672,4.214 11.152,4.734 
												11.152,5.171 11.89,4.433 											"/>
											<polygon clip-path="url(#SVGID_250_)" fill="#231F20" points="11.152,3.781 12,2.934 11.563,2.934 11.152,3.344 
																							"/>
											<polygon clip-path="url(#SVGID_250_)" fill="#231F20" points="48.729,19.028 48.604,18.716 47.705,19.614 48.141,19.614 
																							"/>
											<polygon clip-path="url(#SVGID_250_)" fill="#231F20" points="15.733,19.614 16.17,19.614 16.712,19.072 16.712,18.635 
																							"/>
										</g>
									</g>
								</g>
							</g>
						</g>
					</g>
				</g>
			</g>
		</g>
	</g>
</g>
</svg>
