<svg xmlns="http://www.w3.org/2000/svg" width="812" height="321" viewBox="0 0 812 321" version="1.1"><path d="M 0 15.500 L 0 31 3.500 31 C 6.333 31, 7 30.619, 7 29 C 7 27.099, 7.667 27, 20.500 27 C 33.333 27, 34 27.099, 34 29 C 34 30.619, 34.667 31, 37.500 31 L 41 31 41 15.500 L 41 0 34.500 0 L 28 0 28 4.500 C 28 8.633, 28.204 9, 30.500 9 C 32.796 9, 33 9.367, 33 13.500 L 33 18 28.500 18 L 24 18 24 13 L 24 8 20.500 8 L 17 8 17 13 L 17 18 12.500 18 L 8 18 8 13.500 C 8 9.367, 8.204 9, 10.500 9 C 12.796 9, 13 8.633, 13 4.500 L 13 0 6.500 0 L 0 0 0 15.500 M 175.500 0.956 C 163.791 2.854, 153.753 8.302, 145.283 17.356 C 135.588 27.720, 131.034 39.108, 131.012 53.040 C 130.989 67.683, 135.659 79.421, 145.775 90.145 C 161.712 107.038, 186.473 111.471, 207.304 101.161 L 213.107 98.288 219.508 101.687 C 226.213 105.247, 236.598 107.953, 243.668 107.983 C 251.145 108.014, 251 108.293, 251 93.893 L 251 81 243.500 81 L 236 81 236 85.500 C 236 88.897, 235.620 90, 234.450 90 C 233.146 90, 227.362 87.508, 226.121 86.411 C 225.913 86.227, 227.169 83.853, 228.912 81.136 C 244.026 57.583, 236.977 25.127, 213.339 9.437 C 202.722 2.390, 187.586 -1.002, 175.500 0.956 M 81.332 2.851 C 71.848 6.129, 64.435 13.986, 61.864 23.485 C 60.226 29.539, 61.360 38.053, 64.598 44.002 C 69.211 52.479, 75.750 56.652, 92.523 61.826 C 103.724 65.280, 107.690 68.312, 108.636 74.141 C 109.345 78.511, 106.999 84.299, 103.622 86.512 C 100.645 88.463, 94.183 89.514, 90.637 88.624 C 86.269 87.527, 82.059 83.122, 80.871 78.403 L 79.763 74 70.881 74 L 62 74 62 89.500 L 62 105 69.934 105 C 77.665 105, 77.875 104.936, 78.184 102.478 L 78.500 99.955 82.195 102.476 C 92.808 109.717, 109.623 107.508, 119.564 97.566 C 133.718 83.412, 131.797 60.282, 115.694 50.974 C 112.837 49.323, 105.405 46.368, 99.179 44.408 C 85.854 40.214, 82.115 37.499, 81.399 31.500 C 80.813 26.592, 82.431 23.300, 86.912 20.280 C 93.934 15.548, 103.151 18.694, 105.969 26.783 L 107.438 31 116.219 31 L 125 31 125 17 L 125 3 117 3 C 109.475 3, 109 3.128, 109 5.155 C 109 7.222, 108.921 7.239, 107.066 5.560 C 102.012 0.986, 90.298 -0.247, 81.332 2.851 M 655.698 3.444 C 647.240 6.461, 639.946 13.722, 637.159 21.899 C 635.550 26.617, 635.709 37.369, 637.449 41.532 C 641.470 51.155, 648.534 56.324, 664.856 61.586 C 677.079 65.526, 681.531 68.438, 682.819 73.333 C 685.710 84.324, 673.801 93.497, 663.313 88.356 C 658.822 86.155, 655 80.848, 655 76.815 L 655 73.925 645.750 74.212 L 636.500 74.500 636.224 89.750 L 635.948 105 644.474 105 C 652.255 105, 653 104.830, 653 103.053 C 653 101.252, 653.428 101.333, 658.750 104.150 C 664.129 106.996, 665.049 107.165, 673 106.773 C 683.136 106.274, 689.535 103.471, 695.426 96.950 C 701.109 90.660, 703.309 84.870, 703.413 75.934 C 703.488 69.388, 703.093 67.572, 700.479 62.457 C 696.198 54.079, 690.076 50.053, 673.873 44.960 C 663.531 41.709, 660.661 40.386, 658.572 37.903 C 654.839 33.467, 654.983 27.169, 658.918 22.766 C 661.651 19.707, 662.251 19.500, 668.390 19.500 C 675.932 19.500, 678.214 21.029, 680.470 27.591 L 681.814 31.500 690.657 31.500 L 699.500 31.500 699.778 17.750 L 700.056 4 692.028 4 C 684.474 4, 684 4.127, 684 6.155 C 684 8.161, 683.876 8.198, 682.213 6.693 C 677.181 2.139, 663.914 0.513, 655.698 3.444 M 242 12.500 L 242 21 247 21 L 252 21 252.031 45.250 C 252.065 71.864, 252.959 81.857, 255.900 88.508 C 258.413 94.187, 265.187 100.908, 271.500 103.984 C 275.893 106.125, 277.896 106.425, 288 106.460 C 297.030 106.491, 300.573 106.086, 304.497 104.573 C 311.043 102.049, 319.174 94.276, 322.148 87.702 C 324.428 82.658, 324.509 81.565, 324.803 51.750 L 325.107 21 330.553 21 L 336 21 336 12.500 L 336 4 316 4 L 296 4 296 12.500 L 296 21 300.557 21 L 305.114 21 304.807 49.429 C 304.515 76.452, 304.397 77.997, 302.408 80.679 C 295.045 90.608, 281.038 90.462, 275.266 80.396 C 273.104 76.623, 273.032 75.622, 273.016 48.750 L 273 21 277.500 21 L 282 21 282 12.500 L 282 4 262 4 L 242 4 242 12.500 M 358 12.500 L 358 21 363.083 21 C 365.879 21, 368.017 21.395, 367.833 21.877 C 367.650 22.360, 361.208 37.435, 353.517 55.377 L 339.535 88 334.267 88 L 329 88 329 96.500 L 329 105 350 105 L 371 105 371 97.500 L 371 90 365.611 90 L 360.221 90 362.852 82.978 L 365.483 75.956 382.834 76.228 L 400.185 76.500 402.592 82.420 C 403.917 85.676, 405 88.713, 405 89.170 C 405 89.626, 402.750 90, 400 90 L 395 90 395 97.500 L 395 105 416.500 105 L 438 105 438 96.500 L 438 88 432.654 88 L 427.308 88 409.904 46.022 L 392.500 4.044 375.250 4.022 L 358 4 358 12.500 M 445 12.500 L 445 21 450.500 21 L 456 21 456 54.500 L 456 88 450.500 88 L 445 88 445 96.500 L 445 105 466 105 L 487 105 487 96.500 L 487 88 481.500 88 L 476 88 476 61.333 C 476 46.667, 476.157 34.854, 476.348 35.083 C 476.540 35.313, 482.671 51.137, 489.972 70.250 L 503.247 105 510.536 105 L 517.825 105 520.375 98.250 C 521.777 94.537, 527.874 78.225, 533.922 62 L 544.920 32.500 544.960 60.250 L 545 88 539.500 88 L 534 88 534 96.500 L 534 105 555 105 L 576 105 576 96.500 L 576 88 570.500 88 L 565 88 565 54.500 L 565 21 570.500 21 L 576 21 576 12.479 L 576 3.958 556.373 4.229 L 536.746 4.500 523.634 38.661 C 516.422 57.450, 510.292 72.676, 510.011 72.496 C 509.730 72.317, 503.650 56.840, 496.500 38.104 L 483.500 4.038 464.250 4.019 L 445 4 445 12.500 M 585 12.500 L 585 21 590.500 21 L 596 21 596 54.500 L 596 88 590.500 88 L 585 88 585 96.500 L 585 105 606 105 L 627 105 627 96.500 L 627 88 621.500 88 L 616 88 616 54.500 L 616 21 621.500 21 L 627 21 627 12.500 L 627 4 606 4 L 585 4 585 12.500 M 712 12.500 L 712 21 717.500 21 L 723 21 723 54.500 L 723 88 717.500 88 L 712 88 712 96.500 L 712 105 733 105 L 754 105 754 96.500 L 754 88 748.500 88 L 743 88 743 76 L 743 64 762 64 L 781 64 781 76 L 781 88 775.500 88 L 770 88 770 96.500 L 770 105 790.917 105 C 806.714 105, 811.957 105.306, 812.338 106.250 C 812.615 106.938, 812.788 99.850, 812.722 90.500 C 812.656 81.150, 812.447 76.763, 812.257 80.750 L 811.912 88 806.456 88 L 801 88 801 54.500 L 801 21 806.500 21 L 812 21 812 12.500 L 812 4 791 4 L 770 4 770 12.500 L 770 21 775.500 21 L 781 21 781 32.500 L 781 44 762 44 L 743 44 743 32.500 L 743 21 748.500 21 L 754 21 754 12.500 L 754 4 733 4 L 712 4 712 12.500 M 171.282 23.051 C 160.701 27.238, 152.030 39.206, 152.010 49.652 L 152 54.804 156.659 53.402 C 163.632 51.303, 175.894 51.606, 183.168 54.057 C 190.489 56.523, 198.437 61.458, 205.050 67.643 L 209.913 72.192 211.955 68.846 C 215.346 63.291, 216.271 59.111, 215.769 51.613 C 214.972 39.697, 208.918 29.997, 198.859 24.517 C 191.608 20.566, 179.227 19.908, 171.282 23.051 M 376.782 44.208 C 373.647 52.572, 371.228 59.561, 371.407 59.740 C 371.586 59.919, 376.886 59.938, 383.185 59.783 L 394.637 59.500 389.069 44.258 C 386.006 35.875, 383.271 29.013, 382.991 29.008 C 382.712 29.004, 379.918 35.843, 376.782 44.208 M 0 41 L 0 50 3.500 50 C 6.567 50, 7 49.690, 7 47.500 C 7 45.204, 7.367 45, 11.500 45 L 16 45 16 52.500 L 16 60 11.500 60 C 7.667 60, 7 59.704, 7 58 C 7 56.381, 6.333 56, 3.500 56 L 0 56 0 64.500 L 0 73 3.500 73 C 6.333 73, 7 72.619, 7 71 C 7 69.099, 7.667 69, 20.500 69 C 33.333 69, 34 69.099, 34 71 C 34 72.619, 34.667 73, 37.500 73 L 41 73 41 64.500 L 41 56 37.500 56 C 34.667 56, 34 56.381, 34 58 C 34 59.704, 33.333 60, 29.500 60 L 25 60 25 52.500 L 25 45 29.500 45 C 33.633 45, 34 45.204, 34 47.500 C 34 49.690, 34.433 50, 37.500 50 L 41 50 41 41 L 41 32 37.500 32 C 34.433 32, 34 32.310, 34 34.500 L 34 37 20.500 37 L 7 37 7 34.500 C 7 32.310, 6.567 32, 3.500 32 L 0 32 0 41 M 161 69.109 C 159.075 69.685, 157.107 70.537, 156.626 71.002 C 156.137 71.476, 157.923 74.018, 160.685 76.781 C 166.765 82.861, 174.749 86.137, 183.612 86.188 C 189.502 86.222, 197 84.372, 197 82.884 C 197 81.502, 186.440 73.696, 181.414 71.364 C 175.544 68.640, 166.067 67.593, 161 69.109 M 1 91.500 L 1 108 7 108 L 13 108 13 104 C 13 100.222, 12.833 100, 10 100 C 7.467 100, 7 99.611, 7 97.500 L 7 95 20.500 95 L 34 95 34 97.500 C 34 99.690, 34.433 100, 37.500 100 L 41 100 41 91 L 41 82 37.500 82 C 34.433 82, 34 82.310, 34 84.500 L 34 87 20.500 87 L 7 87 7 84.500 C 7 82.389, 7.467 82, 10 82 C 12.762 82, 13 81.722, 13 78.500 L 13 75 7 75 L 1 75 1 91.500 M 83.500 122.030 C 42.648 128.338, 9.298 160.761, 1.409 201.838 C -0.456 211.552, -0.380 229.751, 1.569 240.140 C 5.561 261.415, 18.441 283.644, 34.583 297.116 C 57.184 315.980, 86.881 324.288, 114.492 319.473 C 134.174 316.041, 151.622 306.966, 167.119 292.100 L 176.918 282.700 172.368 279.814 C 169.866 278.227, 163.409 272.650, 158.019 267.420 L 148.219 257.911 145.321 261.427 C 141.089 266.561, 132.124 273.223, 125.362 276.257 C 116.307 280.321, 108.452 282, 98.500 282 C 81.189 282, 68.908 276.896, 56.424 264.511 C 47.576 255.734, 44.107 250.264, 40.386 239.225 C 37.044 229.310, 36.353 218.666, 38.358 208 C 46.770 163.250, 97.782 143.548, 135.517 170.475 C 141.248 174.564, 150 184.025, 150 186.131 C 150 186.609, 158.100 187, 168 187 L 186 187 186 155.974 L 186 124.948 170.750 125.224 L 155.500 125.500 155.211 134.230 L 154.923 142.960 149.229 138.322 C 142.103 132.518, 129.927 126.641, 119.500 123.973 C 110.265 121.610, 92.448 120.649, 83.500 122.030 M 205 142 L 205 158 215.500 158 L 226 158 226 222 L 226 286 215.500 286 L 205 286 205 301.500 L 205 317 244 317 L 283 317 283 301.500 L 283 286 273 286 L 263 286 263 263 L 263 240 299 240 L 335 240 335 263 L 335 286 324.500 286 L 314 286 314 301.500 L 314 317 353.500 317 L 393 317 393 301.500 L 393 286 382.500 286 L 372 286 372 222.035 L 372 158.070 382.250 157.785 L 392.500 157.500 392.500 142 L 392.500 126.500 353.500 126.500 L 314.500 126.500 314.500 142 L 314.500 157.500 324.750 157.785 L 335 158.070 335 180.035 L 335 202 299 202 L 263 202 263 180 L 263 158 273 158 L 283 158 283 142 L 283 126 244 126 L 205 126 205 142 M 408.440 127.296 C 408.166 128.009, 408.068 135.096, 408.221 143.046 L 408.500 157.500 418.750 157.785 L 429 158.070 429 222.035 L 429 286 418.500 286 L 408 286 408 301.500 L 408 317 447.500 317 L 487 317 487 301.500 L 487 286 476.500 286 L 466 286 466 222 L 466 158 476.500 158 L 487 158 487 142 L 487 126 447.969 126 C 416.927 126, 408.835 126.265, 408.440 127.296 M 505 142 L 505 158 515.500 158 L 526 158 526 222 L 526 286 515.500 286 L 505 286 505 301.500 L 505 317 576 317 L 647 317 647 288 L 647 259 628.500 259 L 610 259 610 272 L 610 285 586.500 285 L 563 285 563 260 L 563 235 587 235 L 611 235 611 220.500 L 611 206 587 206 L 563 206 563 183 L 563 160 586.500 160 L 610 160 610 172 L 610 184 628.500 184 L 647 184 647 155 L 647 126 576 126 L 505 126 505 142 M 669.440 127.296 C 669.166 128.009, 669.068 135.096, 669.221 143.046 L 669.500 157.500 679.750 157.785 L 690 158.070 690 222.035 L 690 286 679.500 286 L 669 286 669 301.500 L 669 317 708.500 317 L 748 317 748 301.500 L 748 286 737.500 286 L 727 286 727 261 L 727 236 751.500 236 L 776 236 776 221.500 L 776 207 751.500 207 L 727 207 727 183.500 L 727 160 751 160 L 775 160 775 172 L 775 184 793.500 184 L 812 184 812 155 L 812 126 740.969 126 C 683.722 126, 669.841 126.252, 669.440 127.296" stroke="none" fill="#ffffff" fill-rule="evenodd"/><path d="" stroke="none" fill="#000000" fill-rule="evenodd"/><path d="" stroke="none" fill="#fffcfc" fill-rule="evenodd"/><path d="" stroke="none" fill="rgba(255,255,0,0.2)" fill-rule="evenodd"/></svg>