<?xml version="1.0" encoding="utf-8"?>
<!-- Generator: Adobe Illustrator 28.2.0, SVG Export Plug-In . SVG Version: 6.00 Build 0)  -->
<svg version="1.1" id="Layer_1" xmlns="http://www.w3.org/2000/svg" xmlns:xlink="http://www.w3.org/1999/xlink" x="0px" y="0px"
	 viewBox="0 0 578.6 79.3" style="enable-background:new 0 0 578.6 79.3;" xml:space="preserve">
<style type="text/css">
	.st0{fill:#B62C2E;}
</style>
<g>
	<path class="st0" d="M392.6,73.2h10V53c0-9.3,4.1-12.8,10-12.8c1.9,0,3.9,0.4,5.6,1.3l3.4-9c-2.1-1.3-4.5-1.9-6.9-1.9
		c-4.5,0-9.3,2.2-12.1,8.7v-7.9h-10V73.2z M356.4,48.8c1.2-6.3,5.7-9.9,12.2-9.9c6.9,0,10.4,4.2,11.2,9.9H356.4z M356.4,55.7h33.5
		c0.7-14.7-7.3-25.3-21.5-25.3c-11.9-0.4-21.9,9-22.3,20.9c0,0.3,0,0.6,0,0.9c0,12.6,9.2,21.8,23.5,21.8c8.4,0,13.7-2.9,17.6-6.7
		l-6-6.2c-3.2,3-7.4,4.6-11.8,4.5C362,65.6,357.7,61.8,356.4,55.7 M333.1,73.2h10v-73h-10V73.2z M322,74.2c4,0.2,7.8-1.3,10.7-4
		l-4.7-6.7c-1.4,1.3-3.1,2-5,2c-2.6,0-4.2-1.4-4.2-6.1V39.9h11.1v-8.5h-11V9.5h-10.1v21.8h-6.3v8.5h6.3V59
		c0,11.2,5.3,15.1,13.2,15.1 M288.7,74c11.9,0,16.2-5.9,16.2-13c0-8.9-7.1-11.5-13.7-13.1c-6.5-1.8-9.1-2.4-9.1-5.6
		c0-2.5,2.1-3.9,5.9-3.9c3.3,0,6.4,1.5,8.6,4l6-5.7c-3.7-4.1-9-6.4-14.5-6.3c-8.2,0-15,4-15,12.4c0,8.3,6.2,11.2,12.4,12.8
		c7,2,10,2.5,10,5.9c0,2.8-2.2,4.5-7.2,4.5c-4.8,0-8.7-1.7-11.2-5.4l-6.9,4.8C272.8,69.9,279.2,74,288.7,74 M258.6,73.1h10V31.4h-10
		L258.6,73.1z M263.6,21.8c3.6,0,6.6-3,6.6-6.6c0-3.6-3-6.6-6.6-6.6c-3.6,0-6.5,2.9-6.6,6.5c-0.1,3.6,2.7,6.6,6.3,6.7
		c0.1,0,0.3,0,0.4,0 M216.5,73.2h10V50.5c0-6.8,4.2-10.8,10.8-10.8c5.9,0,8.7,3.5,8.7,9.4v24h10V48.5c0-11.4-6.4-18-15.6-18
		c-5.9-0.2-11.4,3-14,8.3V0.2h-10L216.5,73.2z M169.9,74.2h1l10.8-20.3c1-2.3,1.9-4.6,2.6-7c0.5,2.4,1.3,4.8,2.4,7L197,74.2h1
		l18.4-42.9h-10l-6.9,18c-1.2,3.1-2.5,8-2.5,8c-0.8-2.7-1.8-5.4-3-8l-9.2-18.7h-1l-9,18c-1.2,2.6-2.1,5.2-2.9,7.9c0,0-1.2-4.8-2.5-8
		l-6.6-17h-11.2L169.9,74.2z"/>
</g>
<g>
	<path d="M17.2,31.4l10,28.3l10.1-28.3h12.4L33.4,74.3H21.1L4.9,31.4H17.2z"/>
	<path d="M58.4,11.9c4,0,6.9,3.1,6.9,7s-2.8,6.9-6.9,6.9c-4,0-6.9-3-6.9-6.9S54.4,11.9,58.4,11.9z M64.3,74.3H52.5V31.4h11.7V74.3z"
		/>
	<path d="M95.9,43.6c-2.7-1.6-6.5-2.8-9.4-2.8s-4.2,1.5-4.2,3.1c0,1.4,0.9,2.1,2.5,3.1l6.2,3.6c5.2,3.1,7.1,7.2,7.1,11.6
		c0,7.4-5.5,13.1-15.8,13.1c-3.9,0-8.2-0.9-11.2-2.2V61.4c2,1.7,6.9,3.8,10.3,3.8c3,0,4.5-1.4,4.5-3.2c0-1.4-0.8-2.5-2.8-3.7
		l-6.7-3.9c-4.5-2.6-6.2-6.8-6.2-11c0-7.6,5.9-12.8,15.9-12.8c3.2,0,7.1,0.6,9.8,1.5V43.6z"/>
	<path d="M109.3,11.9c4,0,6.9,3.1,6.9,7s-2.8,6.9-6.9,6.9c-4,0-6.9-3-6.9-6.9S105.4,11.9,109.3,11.9z M115.2,74.3h-11.7V31.4h11.7
		V74.3z"/>
	<path d="M126.2,74.3V41.4h-6.5v-10h7.2V22l11-2.5v11.9h7.2v10h-7.2v32.9H126.2z"/>
</g>
<g>
	<path d="M430.3,67c0-0.7-0.3-1.3-0.8-1.7s-1.1-0.8-1.9-1.2c-0.8-0.4-1.6-0.7-2.5-1.1c-0.9-0.4-1.7-0.8-2.5-1.4
		c-0.8-0.6-1.4-1.2-1.9-2.1c-0.5-0.8-0.8-1.9-0.8-3.1c0-1.1,0.2-2.1,0.6-2.9c0.4-0.8,0.9-1.5,1.6-2c0.7-0.5,1.5-0.9,2.4-1.2
		c0.9-0.3,2-0.4,3.1-0.4c1.3,0,2.6,0.1,3.7,0.3c1.2,0.2,2.1,0.6,2.9,1l-1.4,3.7c-0.5-0.3-1.2-0.6-2.1-0.8c-1-0.2-2-0.4-3.1-0.4
		c-1,0-1.8,0.2-2.4,0.6c-0.6,0.4-0.8,1-0.8,1.7c0,0.6,0.3,1.2,0.8,1.6c0.5,0.4,1.1,0.8,1.9,1.2c0.8,0.4,1.6,0.7,2.5,1.1
		c0.9,0.4,1.7,0.9,2.5,1.4s1.4,1.2,1.9,2c0.5,0.8,0.8,1.8,0.8,3s-0.2,2.3-0.6,3.1s-1,1.6-1.7,2.2c-0.7,0.6-1.6,1-2.6,1.3
		c-1,0.3-2.2,0.4-3.4,0.4c-1.6,0-3-0.2-4.3-0.5s-2.1-0.6-2.7-0.9l1.4-3.8c0.2,0.1,0.5,0.3,0.9,0.4c0.4,0.2,0.8,0.3,1.3,0.4
		s1,0.2,1.5,0.3c0.5,0.1,1.1,0.1,1.6,0.1c1.3,0,2.3-0.2,3-0.7C430,68.6,430.3,67.9,430.3,67z"/>
	<path d="M436.9,50.6c0.9-0.2,1.9-0.3,3-0.4c1.1-0.1,2.2-0.1,3.3-0.1c1.1,0,2.3,0.1,3.4,0.3c1.1,0.2,2.2,0.6,3.1,1.1
		c0.9,0.6,1.6,1.3,2.2,2.3c0.6,1,0.9,2.3,0.9,3.8c0,1.4-0.2,2.6-0.7,3.6c-0.5,1-1.2,1.8-2,2.4c-0.8,0.6-1.8,1.1-2.8,1.4
		c-1,0.3-2.1,0.4-3.3,0.4c-0.1,0-0.3,0-0.5,0c-0.2,0-0.5,0-0.7,0c-0.3,0-0.5,0-0.8,0c-0.2,0-0.4,0-0.5-0.1v7.8h-4.4V50.6z
		 M443.5,53.9c-0.4,0-0.8,0-1.2,0c-0.4,0-0.7,0.1-0.9,0.1v7.4c0.1,0,0.2,0,0.4,0.1c0.2,0,0.4,0,0.6,0c0.2,0,0.4,0,0.6,0
		c0.2,0,0.3,0,0.4,0c0.6,0,1.2-0.1,1.7-0.2c0.6-0.1,1.1-0.3,1.5-0.6s0.8-0.7,1.1-1.2c0.3-0.5,0.4-1.2,0.4-2c0-0.7-0.1-1.3-0.4-1.8
		c-0.3-0.5-0.6-0.8-1-1.1c-0.4-0.3-0.9-0.5-1.4-0.6C444.6,54,444.1,53.9,443.5,53.9z"/>
	<path d="M453.6,61.7c0-3.8,0.8-6.7,2.5-8.7c1.7-2,4-3.1,7.1-3.1c1.6,0,3,0.3,4.2,0.8c1.2,0.6,2.2,1.4,3,2.4c0.8,1,1.4,2.3,1.8,3.7
		c0.4,1.4,0.6,3.1,0.6,4.8c0,3.8-0.8,6.7-2.5,8.7s-4,3.1-7.1,3.1c-1.6,0-3.1-0.3-4.3-0.8c-1.2-0.6-2.2-1.4-3-2.4
		c-0.8-1-1.4-2.3-1.8-3.7C453.8,65.1,453.6,63.5,453.6,61.7z M458.3,61.7c0,1.1,0.1,2.2,0.3,3.2c0.2,1,0.5,1.8,0.9,2.5
		s0.9,1.2,1.5,1.6c0.6,0.4,1.4,0.6,2.2,0.6c1.6,0,2.8-0.6,3.7-1.8c0.9-1.2,1.3-3.2,1.3-6c0-1.1-0.1-2.1-0.3-3.1
		c-0.2-1-0.5-1.8-0.9-2.5c-0.4-0.7-0.9-1.3-1.5-1.7s-1.4-0.6-2.3-0.6c-1.6,0-2.8,0.6-3.7,1.9C458.7,57.1,458.3,59,458.3,61.7z"/>
	<path d="M490.1,54.3h-6.6v18.8H479V54.3h-6.7v-4h17.7V54.3z"/>
	<path d="M505.9,73.1h-14.4V50.4h4.4v18.7h9.9V73.1z"/>
	<path d="M507.9,50.4h4.4v22.7h-4.4V50.4z"/>
	<path d="M523.9,61.3h8.5v10.1c-0.9,0.8-2,1.3-3.3,1.7c-1.3,0.3-2.5,0.5-3.7,0.5c-1.4,0-2.8-0.2-4-0.7c-1.2-0.5-2.3-1.2-3.2-2.1
		s-1.6-2.2-2.1-3.7c-0.5-1.5-0.8-3.3-0.8-5.3c0-2.1,0.3-4,0.9-5.5s1.4-2.7,2.4-3.7c1-0.9,2.1-1.6,3.4-2c1.3-0.4,2.5-0.6,3.8-0.6
		c1.3,0,2.4,0.1,3.4,0.3c1,0.2,1.8,0.4,2.4,0.6l-0.9,3.7c-0.5-0.2-1.1-0.4-1.8-0.5c-0.7-0.1-1.5-0.2-2.6-0.2c-0.9,0-1.8,0.1-2.6,0.4
		c-0.8,0.3-1.5,0.7-2,1.4s-1,1.5-1.3,2.4c-0.3,1-0.5,2.2-0.5,3.6c0,1.4,0.2,2.5,0.5,3.5c0.3,1,0.7,1.8,1.3,2.4
		c0.5,0.6,1.2,1.1,1.9,1.4c0.7,0.3,1.5,0.5,2.3,0.5c0.6,0,1.1-0.1,1.7-0.2c0.5-0.1,1-0.4,1.4-0.6v-4.3l-4.9-0.5V61.3z"/>
	<path d="M547.6,63.6h-8.3v9.5h-4.4V50.4h4.4v9.2h8.3v-9.2h4.4v22.7h-4.4V63.6z"/>
	<path d="M571.2,54.3h-6.6v18.8h-4.4V54.3h-6.7v-4h17.7V54.3z"/>
</g>
</svg>
